<?xml version="1.0" encoding="utf-8"?>
<!-- Generator: Adobe Illustrator 16.0.0, SVG Export Plug-In . SVG Version: 6.00 Build 0)  -->
<!DOCTYPE svg PUBLIC "-//W3C//DTD SVG 1.1//EN" "http://www.w3.org/Graphics/SVG/1.1/DTD/svg11.dtd">
<svg version="1.1" id="Layer_1" xmlns="http://www.w3.org/2000/svg" xmlns:xlink="http://www.w3.org/1999/xlink" x="0px" y="0px"
	 width="374px" height="374px" viewBox="0 0 374 374" enable-background="new 0 0 374 374" xml:space="preserve">
<g display="none">
	<rect display="inline" fill="none" stroke="#AADFF1" stroke-miterlimit="10" width="374" height="374"/>
	<line display="inline" fill="none" stroke="#AADFF1" stroke-miterlimit="10" x1="0" y1="340.033" x2="374" y2="340.033"/>
	<line display="inline" fill="none" stroke="#AADFF1" stroke-miterlimit="10" x1="0" y1="305.975" x2="374" y2="305.975"/>
	<line display="inline" fill="none" stroke="#AADFF1" stroke-miterlimit="10" x1="0" y1="272.008" x2="374" y2="272.008"/>
	<line display="inline" fill="none" stroke="#AADFF1" stroke-miterlimit="10" x1="0" y1="238.041" x2="374" y2="238.041"/>
	<line display="inline" fill="none" stroke="#AADFF1" stroke-miterlimit="10" x1="0" y1="203.982" x2="374" y2="203.982"/>
	<line display="inline" fill="none" stroke="#AADFF1" stroke-miterlimit="10" x1="0" y1="170.017" x2="374" y2="170.017"/>
	<line display="inline" fill="none" stroke="#AADFF1" stroke-miterlimit="10" x1="0" y1="135.959" x2="374" y2="135.959"/>
	<line display="inline" fill="none" stroke="#AADFF1" stroke-miterlimit="10" x1="0" y1="101.992" x2="374" y2="101.992"/>
	<line display="inline" fill="none" stroke="#AADFF1" stroke-miterlimit="10" x1="0" y1="68.025" x2="374" y2="68.025"/>
	<line display="inline" fill="none" stroke="#AADFF1" stroke-miterlimit="10" x1="0" y1="33.967" x2="374" y2="33.967"/>
	<line display="inline" fill="none" stroke="#AADFF1" stroke-miterlimit="10" x1="340.032" y1="0" x2="340.032" y2="374"/>
	<line display="inline" fill="none" stroke="#AADFF1" stroke-miterlimit="10" x1="305.975" y1="0" x2="305.975" y2="374"/>
	<line display="inline" fill="none" stroke="#AADFF1" stroke-miterlimit="10" x1="272.008" y1="0" x2="272.008" y2="374"/>
	<line display="inline" fill="none" stroke="#AADFF1" stroke-miterlimit="10" x1="238.041" y1="0" x2="238.041" y2="374"/>
	<line display="inline" fill="none" stroke="#AADFF1" stroke-miterlimit="10" x1="203.982" y1="0" x2="203.982" y2="374"/>
	<line display="inline" fill="none" stroke="#AADFF1" stroke-miterlimit="10" x1="170.017" y1="0" x2="170.017" y2="374"/>
	<line display="inline" fill="none" stroke="#AADFF1" stroke-miterlimit="10" x1="135.958" y1="0" x2="135.958" y2="374"/>
	<line display="inline" fill="none" stroke="#AADFF1" stroke-miterlimit="10" x1="101.991" y1="0" x2="101.991" y2="374"/>
	<line display="inline" fill="none" stroke="#AADFF1" stroke-miterlimit="10" x1="68.024" y1="0" x2="68.024" y2="374"/>
	<line display="inline" fill="none" stroke="#AADFF1" stroke-miterlimit="10" x1="33.967" y1="0" x2="33.967" y2="374"/>
</g>
<g id="Layer_2">
</g>
<g>
	<g>
		<g>
			<g>
				<path fill="#0C0A0C" d="M17.822,61.533h-1.659c-0.315,0-0.408,0-1.269-2.175l-0.575-0.238c-1.771,0.819-1.983,0.819-2.074,0.819
					c-0.117,0-0.249-0.052-0.332-0.136l-1.172-1.171c-0.234-0.235-0.294-0.295,0.637-2.448l-0.231-0.559
					c-2.188-0.798-2.188-0.896-2.188-1.23v-1.657c0-0.331,0-0.417,2.183-1.278l0.23-0.56c-0.981-2.11-0.915-2.179-0.679-2.416
					l1.175-1.172c0.083-0.082,0.214-0.133,0.33-0.133c0.085,0,0.307,0,2.106,0.775l0.571-0.238c0.801-2.183,0.902-2.183,1.219-2.183
					h1.659c0.316,0,0.408,0,1.269,2.176l0.575,0.236c1.768-0.817,1.979-0.817,2.072-0.817c0.117,0,0.248,0.052,0.331,0.134
					l1.175,1.17c0.229,0.23,0.293,0.296-0.637,2.45l0.231,0.561c2.189,0.797,2.189,0.894,2.189,1.227v1.657
					c0,0.333-0.001,0.418-2.183,1.28l-0.231,0.56c0.983,2.11,0.915,2.178,0.683,2.415l-1.179,1.174
					c-0.083,0.083-0.214,0.135-0.33,0.135l0,0c-0.084,0-0.304,0-2.104-0.776l-0.573,0.237
					C18.239,61.533,18.147,61.533,17.822,61.533z M16.402,60.627h1.175c0.157-0.341,0.459-1.115,0.702-1.781
					c0.042-0.119,0.133-0.214,0.249-0.261l0.924-0.382c0.108-0.044,0.232-0.044,0.34,0.004c0.665,0.288,1.451,0.61,1.808,0.733
					l0.822-0.823c-0.132-0.357-0.466-1.11-0.763-1.745c-0.053-0.115-0.057-0.25-0.008-0.371l0.381-0.923
					c0.047-0.113,0.137-0.203,0.249-0.247c0.67-0.264,1.449-0.59,1.791-0.755v-1.151c-0.345-0.157-1.119-0.456-1.784-0.697
					c-0.118-0.042-0.212-0.132-0.261-0.25l-0.381-0.925c-0.047-0.115-0.046-0.246,0.003-0.359c0.285-0.656,0.603-1.431,0.728-1.792
					l-0.825-0.822c-0.352,0.13-1.117,0.467-1.763,0.768c-0.111,0.051-0.238,0.055-0.351,0.008l-0.924-0.381
					c-0.112-0.046-0.201-0.137-0.245-0.251c-0.265-0.669-0.589-1.448-0.755-1.787h-1.176c-0.157,0.343-0.458,1.116-0.7,1.781
					c-0.042,0.12-0.134,0.215-0.249,0.262l-0.923,0.382c-0.108,0.046-0.23,0.045-0.34-0.003c-0.666-0.288-1.454-0.61-1.809-0.731
					l-0.823,0.822c0.133,0.356,0.465,1.111,0.762,1.747c0.056,0.115,0.058,0.25,0.01,0.37l-0.385,0.922
					c-0.047,0.114-0.136,0.203-0.248,0.247c-0.67,0.263-1.447,0.588-1.789,0.753v1.152c0.345,0.158,1.119,0.458,1.784,0.699
					c0.117,0.043,0.212,0.135,0.261,0.25l0.38,0.924c0.048,0.113,0.045,0.244-0.002,0.358c-0.285,0.656-0.604,1.431-0.728,1.792
					l0.823,0.822c0.352-0.132,1.117-0.468,1.764-0.768c0.111-0.051,0.237-0.054,0.352-0.008l0.925,0.383
					c0.112,0.046,0.2,0.137,0.245,0.251C15.911,59.512,16.236,60.29,16.402,60.627z M16.958,56.404
					c-1.581,0-2.867-1.289-2.867-2.871s1.286-2.87,2.867-2.87c1.579,0,2.865,1.288,2.865,2.87S18.538,56.404,16.958,56.404z
					 M16.958,51.568c-1.091,0-1.979,0.881-1.979,1.965c0,1.085,0.888,1.967,1.979,1.967s1.979-0.883,1.979-1.967
					S18.049,51.568,16.958,51.568z"/>
			</g>
		</g>
	</g>
</g>
<g>
	<g>
		<path d="M21.521,18.588l-0.454-0.035l-0.006-2.445c-0.096-0.708-0.834-2.406-2.099-2.406c-0.295,0-0.693,0.137-1.116,0.282
			c-0.327,0.115-0.7,0.244-0.887,0.244s-0.554-0.129-0.875-0.244c-0.417-0.146-0.811-0.282-1.105-0.282
			c-1.31,0-2.021,1.757-2.121,2.414l-0.017,2.431l-0.442,0.056c-1.904,0.094-3.44,1.345-3.44,2.319c0,1.604,3.962,3.179,8,3.179
			s8-1.576,8-3.179C24.958,19.99,23.494,18.988,21.521,18.588z M13.414,16.169c0.083-0.511,0.688-1.858,1.564-1.858
			c0.207,0,0.595,0.137,0.934,0.255c0.396,0.141,0.772,0.271,1.047,0.271c0.272,0,0.654-0.131,1.057-0.27
			c0.345-0.12,0.738-0.254,0.946-0.254c0.853,0,1.468,1.32,1.541,1.839l0.004,2.557c-0.415,0.432-1.207,1.073-2.315,1.179
			c-0.817,0.079-1.564,0.079-2.383,0c-0.958-0.091-1.875-0.688-2.409-1.205L13.414,16.169z M16.958,23.49
			c-4.297,0-7.438-1.69-7.438-2.569c0-0.464,1.125-1.619,2.924-1.709l0.583-0.074c0.623,0.606,1.634,1.256,2.731,1.362
			c0.427,0.041,0.833,0.06,1.24,0.06c0.4,0,0.817-0.019,1.24-0.06c1.279-0.125,2.181-0.857,2.651-1.349l0.56,0.042
			c1.825,0.372,2.947,1.257,2.947,1.727C24.396,21.8,21.255,23.49,16.958,23.49z"/>
	</g>
	<g>
		<path fill="none" stroke="#000000" stroke-width="0.2667" stroke-miterlimit="10" d="M21.521,18.588l-0.454-0.035l-0.006-2.445
			c-0.096-0.708-0.834-2.406-2.099-2.406c-0.295,0-0.693,0.137-1.116,0.282c-0.327,0.115-0.7,0.244-0.887,0.244
			s-0.554-0.129-0.875-0.244c-0.417-0.146-0.811-0.282-1.105-0.282c-1.31,0-2.021,1.757-2.121,2.414l-0.017,2.431l-0.442,0.056
			c-1.904,0.094-3.44,1.345-3.44,2.319c0,1.604,3.962,3.179,8,3.179s8-1.576,8-3.179C24.958,19.99,23.494,18.988,21.521,18.588z
			 M13.414,16.169c0.083-0.511,0.688-1.858,1.564-1.858c0.207,0,0.595,0.137,0.934,0.255c0.396,0.141,0.772,0.271,1.047,0.271
			c0.272,0,0.654-0.131,1.057-0.27c0.345-0.12,0.738-0.254,0.946-0.254c0.853,0,1.468,1.32,1.541,1.839l0.004,2.557
			c-0.415,0.432-1.207,1.073-2.315,1.179c-0.817,0.079-1.564,0.079-2.383,0c-0.958-0.091-1.875-0.688-2.409-1.205L13.414,16.169z
			 M16.958,23.49c-4.297,0-7.438-1.69-7.438-2.569c0-0.464,1.125-1.619,2.924-1.709l0.583-0.074
			c0.623,0.606,1.634,1.256,2.731,1.362c0.427,0.041,0.833,0.06,1.24,0.06c0.4,0,0.817-0.019,1.24-0.06
			c1.279-0.125,2.181-0.857,2.651-1.349l0.56,0.042c1.825,0.372,2.947,1.257,2.947,1.727C24.396,21.8,21.255,23.49,16.958,23.49z"/>
	</g>
</g>
<g>
	<g>
		<path fill="#010101" stroke="#000000" stroke-width="0.4" stroke-miterlimit="10" d="M13.682,83.329
			c1.383,0.817,5.038,3.127,5.538,3.716c0.274,0.323,0.407,0.734,0.374,1.155c-0.034,0.422-0.229,0.806-0.552,1.082
			c-0.284,0.243-0.649,0.377-1.024,0.377c-0.465,0-0.905-0.203-1.205-0.556C16.319,88.523,14.351,84.747,13.682,83.329
			 M13.265,82.559c-0.072,0-0.142,0.024-0.198,0.073c-0.083,0.071-0.122,0.179-0.104,0.285c0.063,0.362,2.788,5.722,3.46,6.514
			c0.398,0.468,0.977,0.736,1.592,0.736c0.495,0,0.977-0.176,1.354-0.5c0.424-0.363,0.683-0.868,0.729-1.425
			c0.043-0.558-0.131-1.099-0.493-1.525c-0.673-0.791-5.896-4.02-6.241-4.14C13.332,82.564,13.299,82.559,13.265,82.559
			L13.265,82.559z"/>
	</g>
	<path fill="none" stroke="#000000" stroke-miterlimit="10" d="M12.136,87.295H8.318c0.295-4.466,4.06-8.012,8.641-8.012
		c4.583,0,8.345,3.545,8.64,8.012h-3.912"/>
</g>
<path fill="none" stroke="#000000" stroke-miterlimit="10" d="M12.802,102.218l-3.191,4.063l-2.299-1.971"/>
<path fill="none" stroke="#000000" stroke-miterlimit="10" d="M27.699,104.694h-11.71"/>
<path fill="none" stroke="#000000" stroke-miterlimit="10" d="M9.512,113.253c-1.169,0-2.121-0.951-2.121-2.12
	c0-1.17,0.951-2.123,2.121-2.123c1.17,0,2.121,0.953,2.121,2.123C11.633,112.302,10.682,113.253,9.512,113.253z"/>
<path fill="none" stroke="#000000" stroke-miterlimit="10" d="M9.512,120.176c-1.169,0-2.121-0.952-2.121-2.121
	c0-1.17,0.951-2.122,2.121-2.122c1.17,0,2.121,0.952,2.121,2.122C11.633,119.224,10.682,120.176,9.512,120.176z"/>
<path fill="none" stroke="#000000" stroke-miterlimit="10" d="M27.699,111.421h-11.71"/>
<path fill="none" stroke="#000000" stroke-miterlimit="10" d="M27.899,118.563H16.19"/>
<circle cx="44.164" cy="15.838" r="1.164"/>
<circle cx="47.785" cy="12.217" r="1.164"/>
<circle cx="50.113" cy="16.097" r="1.164"/>
<circle cx="53.992" cy="12.217" r="1.164"/>
<rect x="51.89" y="16.614" width="1.779" height="4.656"/>
<rect x="56.805" y="15.708" width="1.778" height="5.561"/>
<rect x="54.477" y="14.318" width="1.778" height="6.952"/>
<polygon points="45.102,15.385 47.559,13.073 49.207,15.53 50.807,15.871 53.701,12.912 53.232,12.281 50.403,15.224 49.676,15.095 
	47.946,12.573 46.928,12.378 44.31,15.045 "/>
<g>
	<path d="M53.458,23.272l0.642,1.385l-5.874,0.017l0.482-1.402H53.458 M54.097,22.272h-6.103l-1.171,3.406l8.84-0.026L54.097,22.272
		L54.097,22.272z"/>
</g>
<g>
	<path d="M57.618,10.031c1.103,0,2,0.896,2,2v8.188c0,1.104-0.897,2-2,2h-12.75c-1.103,0-2-0.896-2-2v-8.188c0-1.104,0.897-2,2-2
		H57.618 M57.618,9.031h-12.75c-1.65,0-3,1.35-3,3v8.188c0,1.65,1.35,3,3,3h12.75c1.65,0,3-1.35,3-3v-8.188
		C60.618,10.381,59.268,9.031,57.618,9.031L57.618,9.031z"/>
</g>
<g>
	<path d="M58.64,60.167c-4.278,0-8.555,0-12.832,0c-0.032,0-0.064,0-0.102,0c0-3.235,0-6.465,0-9.7
		c0.227,0.024,0.449,0.047,0.671,0.072c0.195,0.021,0.389,0.046,0.584,0.063c0.07,0.005,0.088,0.026,0.087,0.096
		c-0.002,1.029-0.001,2.058-0.001,3.087c0,1.645,0,3.29,0,4.935c0,0.03,0,0.063,0,0.096c3.416,0,6.826,0,10.241,0
		c0-3.299,0-6.597,0-9.902c-1.396,0-2.79,0-4.192,0c0-1.402,0-2.796,0-4.203c-0.036,0-0.065,0-0.094,0c-0.896,0-1.792,0-2.688,0.001
		c-0.055,0-0.087-0.015-0.117-0.063c-0.265-0.429-0.532-0.856-0.798-1.284c1.494,0,2.987,0,4.48,0
		c0.012,0.014,0.023,0.029,0.036,0.042c1.441,1.497,2.882,2.994,4.324,4.491c0.132,0.137,0.267,0.272,0.401,0.409
		C58.64,52.26,58.64,56.213,58.64,60.167z M54.109,45.621c0,0.769,0,1.52,0,2.274c0.729,0,1.456,0,2.199,0
		C55.572,47.133,54.846,46.383,54.109,45.621z"/>
	<path d="M44.719,48.598c-1.103-1.269-0.957-3.129,0.308-4.193c1.158-0.975,2.822-0.915,3.909,0.143
		c1.193,1.161,1.116,2.868,0.271,3.926c-0.967,1.21-2.774,1.518-4.136,0.465c-0.011,0.024-0.021,0.046-0.029,0.069
		c-0.15,0.394-0.299,0.789-0.451,1.183c-0.017,0.044-0.043,0.088-0.076,0.123c-0.404,0.427-0.814,0.849-1.211,1.282
		c-0.205,0.223-0.625,0.342-0.972,0.118c-0.367-0.235-0.491-0.716-0.273-1.08c0.02-0.033,0.045-0.065,0.071-0.094
		c0.41-0.437,0.82-0.875,1.232-1.311c0.036-0.037,0.082-0.069,0.129-0.09c0.385-0.172,0.772-0.339,1.159-0.508
		C44.671,48.621,44.692,48.611,44.719,48.598z M48.7,46.641c0.002-0.97-0.812-1.792-1.778-1.794
		c-0.976-0.002-1.806,0.812-1.807,1.775c-0.001,1.114,0.881,1.816,1.789,1.824C47.886,48.454,48.698,47.633,48.7,46.641z"/>
	<path d="M48.393,52.097c0-0.224,0-0.442,0-0.664c2.463,0,4.921,0,7.385,0c0,0.219,0,0.439,0,0.664
		C53.319,52.097,50.859,52.097,48.393,52.097z"/>
	<path d="M55.781,53.786c0,0.224,0,0.442,0,0.665c-2.463,0-4.92,0-7.385,0c0-0.219,0-0.439,0-0.665
		C50.854,53.786,53.314,53.786,55.781,53.786z"/>
	<path d="M48.393,56.802c0-0.224,0-0.442,0-0.665c2.463,0,4.924,0,7.388,0c0,0.222,0,0.44,0,0.665
		C53.32,56.802,50.86,56.802,48.393,56.802z"/>
</g>
<path d="M53.215,91.813"/>
<g>
	<path d="M44.518,82.133v-2.122c0-0.39,0.319-0.709,0.708-0.709h3.89c0.389,0,0.708,0.319,0.708,0.709v2.122
		c0,0.39-0.319,0.707-0.708,0.707h-3.89C44.837,82.84,44.518,82.522,44.518,82.133z"/>
	<g>
		<rect x="46.287" y="83.194" width="1.769" height="8.488"/>
		<rect x="46.287" y="75.765" width="1.769" height="3.186"/>
	</g>
	<path d="M55.129,85.317v2.123c0,0.389-0.317,0.705-0.709,0.705h-3.89c-0.39,0-0.708-0.316-0.708-0.705v-2.123
		c0-0.39,0.318-0.709,0.708-0.709h3.89C54.812,84.608,55.129,84.928,55.129,85.317z"/>
	<g>
		<rect x="51.591" y="75.765" width="1.771" height="8.49"/>
		<rect x="51.591" y="88.5" width="1.771" height="3.183"/>
	</g>
	<path d="M55.129,82.133v-2.122c0-0.39,0.317-0.709,0.709-0.709h3.89c0.39,0,0.708,0.319,0.708,0.709v2.122
		c0,0.39-0.318,0.707-0.708,0.707h-3.89C55.448,82.84,55.129,82.522,55.129,82.133z"/>
	<g>
		<rect x="56.898" y="83.194" width="1.771" height="8.488"/>
		<rect x="56.898" y="75.765" width="1.771" height="3.186"/>
	</g>
</g>
<polygon fill="none" stroke="#000000" stroke-linecap="round" stroke-linejoin="round" stroke-miterlimit="10" points="
	53.033,102.743 52.525,102.743 43.832,106.511 43.832,109.144 44.846,109.144 44.846,120.097 60.784,120.097 60.784,109.144 
	61.728,109.144 61.728,106.511 "/>
<line fill="none" stroke="#000000" stroke-miterlimit="10" x1="50.324" y1="109.316" x2="51.963" y2="109.316"/>
<line fill="none" stroke="#000000" stroke-miterlimit="10" x1="53.801" y1="109.316" x2="55.44" y2="109.316"/>
<line fill="none" stroke="#000000" stroke-linejoin="round" stroke-miterlimit="10" x1="46.846" y1="109.316" x2="48.486" y2="109.316"/>
<line fill="none" stroke="#000000" stroke-miterlimit="10" x1="57.278" y1="109.316" x2="58.918" y2="109.316"/>
<rect x="47.554" y="112.421" fill="none" stroke="#000000" stroke-width="0.5" stroke-miterlimit="10" width="10.545" height="7.678"/>
<rect x="49.14" y="115.337" fill="none" stroke="#000000" stroke-width="0.5" stroke-miterlimit="10" width="3.737" height="2.078"/>
<polygon fill="none" stroke="#000000" stroke-width="0.5" stroke-miterlimit="10" points="52.885,119.493 49.148,119.493 
	49.132,117.415 52.869,117.415 "/>
<polygon fill="none" stroke="#000000" stroke-width="0.5" stroke-miterlimit="10" points="56.638,119.493 52.901,119.493 
	52.885,117.415 56.622,117.415 "/>
<g>
	<g>
		<path fill="none" stroke="#000000" stroke-width="0.8" stroke-miterlimit="10" d="M16.134,142.066l0.002,0.114
			c0.006,0.248-0.034,0.498-0.073,0.749l-0.02,0.092c-0.018,0.136-0.036,0.272-0.056,0.407l-0.078,0.568
			c-0.055,0.386-0.094,0.75-0.154,1.137c0.161,0.154,0.39,0.375,0.572,0.53l0.047,0.042c0.265-0.276,0.462-0.462,0.592-0.601
			c-0.051-0.316-0.105-0.655-0.156-0.972l-0.13-0.722c-0.022-0.089-0.026-0.203-0.053-0.315l-0.049-0.25
			c-0.05-0.201-0.101-0.427-0.104-0.631c-0.003-0.045-0.003-0.092-0.004-0.137l-0.001-0.046"/>
		<path fill="none" stroke="#000000" stroke-width="0.8" stroke-miterlimit="10" d="M21.604,145.601
			c0-0.073-0.021-0.926-0.022-0.981c-0.007-0.236-0.033-0.526-0.163-0.795c-0.455-0.935-1.669-1.434-2.611-1.667
			c-1.104-0.283-1.025-0.795-0.976-1.068c-0.003-0.038,0.014-0.071,0.052-0.11l0.015-0.037c0.018-0.036,0.055-0.074,0.087-0.11
			l0.018-0.019l0.019-0.035l0.035-0.039v-0.018c0.175-0.259,0.292-0.57,0.373-0.937c0-0.018,0-0.018,0.017-0.035
			c0.091-0.058,0.162-0.114,0.23-0.188c0.053-0.056,0.087-0.11,0.139-0.186c0.07-0.148,0.122-0.293,0.133-0.477
			c0-0.037,0.02-0.074,0.019-0.106c0.014-0.094,0.013-0.185,0.03-0.276c-0.002-0.073-0.003-0.126-0.005-0.182
			c0-0.016,0-0.016-0.001-0.034c0.013-0.219-0.136-0.488-0.392-0.555c-0.017,0-0.017,0-0.033,0
			c-0.001-0.072,0.013-0.146,0.028-0.218c0.018-0.093,0.033-0.184,0.03-0.292c0.013-0.291,0.007-0.527,0.001-0.746
			c-0.024-0.268-0.083-0.488-0.175-0.648c-0.077-0.127-0.188-0.216-0.315-0.264c-0.07-0.037-0.144-0.071-0.218-0.124
			c-0.038-0.038-0.056-0.055-0.093-0.108c-0.018-0.017-0.018-0.035-0.039-0.053l-0.018-0.037c-0.092-0.124-0.185-0.213-0.293-0.284
			c-0.02-0.017-0.055-0.035-0.092-0.051c-0.309-0.14-0.669-0.167-0.956-0.162c-0.09,0.004-0.18,0.005-0.286,0.007
			c-0.45,0.01-0.879,0.112-1.271,0.265c-0.071,0.021-0.144,0.059-0.215,0.097c-0.337,0.154-0.619,0.414-0.791,0.726
			c-0.138,0.313-0.218,0.642-0.195,1.004c0.006,0.218,0.048,0.452,0.108,0.688c0.018,0.072,0.02,0.146,0.038,0.219
			c0.003,0.037,0.003,0.071,0.022,0.09c0,0,0.002,0.019,0.002,0.038c-0.231,0.077-0.37,0.353-0.347,0.568v0.019
			c0.001,0.056,0.002,0.109,0.004,0.201c0.002,0.09,0.024,0.161,0.042,0.251c0.001,0.038,0.021,0.09,0.023,0.129
			c0.023,0.197,0.079,0.342,0.17,0.469c0,0.018,0.02,0.017,0.022,0.035l0.126,0.142c0.019,0.018,0.056,0.053,0.076,0.069
			c0.056,0.054,0.108,0.089,0.148,0.125c0.035,0.035,0.037,0.09,0.057,0.182c0.019,0.053,0.039,0.124,0.056,0.179
			c0.076,0.162,0.155,0.323,0.228,0.448c0.037,0.054,0.073,0.107,0.131,0.18c0.017,0.018,0.037,0.053,0.055,0.071l0.074,0.143
			c0,0.018,0.018,0.036,0.018,0.055c0.063,0.271,0.164,0.795-0.926,1.113c-1.07,0.333-2.103,0.775-2.529,1.785
			c-0.121,0.272-0.13,0.585-0.124,0.82c0,0.056,0.019,0.891,0.021,0.963"/>
	</g>
	<g>
		<path fill="none" stroke="#000000" stroke-width="0.8" stroke-miterlimit="10" d="M10.276,141.735l0.002,0.084
			c0.004,0.186-0.025,0.371-0.053,0.557l-0.016,0.068c-0.013,0.101-0.027,0.201-0.042,0.304l-0.056,0.422
			c-0.042,0.288-0.073,0.559-0.115,0.844c0.118,0.115,0.29,0.28,0.426,0.395l0.033,0.032c0.195-0.207,0.344-0.344,0.44-0.447
			c-0.038-0.235-0.077-0.486-0.116-0.724l-0.097-0.535c-0.019-0.066-0.02-0.152-0.039-0.235l-0.037-0.183
			c-0.037-0.151-0.073-0.319-0.076-0.472c-0.002-0.033-0.003-0.065-0.003-0.1l0-0.036"/>
		<path fill="none" stroke="#000000" stroke-width="0.8" stroke-miterlimit="10" d="M13.556,142.342
			c-0.397-0.263-0.879-0.436-1.29-0.537c-0.822-0.21-0.761-0.59-0.727-0.793c-0.001-0.025,0.013-0.053,0.04-0.083l0.013-0.025
			c0.011-0.026,0.036-0.056,0.063-0.084l0.012-0.014l0.014-0.026l0.027-0.027l-0.002-0.013c0.131-0.192,0.217-0.425,0.28-0.695
			c-0.001-0.013-0.001-0.013,0.009-0.027c0.069-0.041,0.123-0.084,0.175-0.14c0.036-0.041,0.063-0.084,0.101-0.137
			c0.051-0.109,0.088-0.218,0.099-0.355c-0.001-0.026,0.013-0.055,0.013-0.08c0.012-0.068,0.01-0.136,0.02-0.204
			c0-0.055-0.002-0.094-0.003-0.135c0-0.015,0-0.015,0-0.028c0.009-0.161-0.103-0.361-0.288-0.409c-0.014,0-0.014,0-0.026,0.001
			c-0.001-0.057,0.01-0.11,0.022-0.165c0.011-0.066,0.024-0.136,0.021-0.215c0.007-0.219,0.005-0.394,0.002-0.556
			c-0.019-0.202-0.064-0.364-0.134-0.483c-0.057-0.094-0.136-0.159-0.229-0.198c-0.056-0.023-0.111-0.051-0.164-0.09
			c-0.028-0.024-0.041-0.039-0.069-0.08c-0.013-0.013-0.013-0.025-0.027-0.04l-0.013-0.025c-0.07-0.093-0.138-0.16-0.219-0.211
			c-0.013-0.013-0.04-0.026-0.069-0.04c-0.229-0.103-0.496-0.123-0.71-0.119c-0.067,0.001-0.133,0.003-0.213,0.005
			c-0.333,0.008-0.653,0.082-0.943,0.198c-0.055,0.016-0.107,0.042-0.16,0.07c-0.252,0.113-0.461,0.308-0.589,0.542
			c-0.103,0.23-0.164,0.473-0.143,0.743c0.003,0.164,0.034,0.338,0.077,0.514c0.016,0.051,0.017,0.107,0.033,0.16
			c0,0.028,0,0.055,0.014,0.069c0,0,0,0.013,0,0.025c-0.172,0.058-0.275,0.263-0.258,0.424v0.015c0,0.042,0.002,0.083,0.003,0.149
			c0.001,0.066,0.019,0.122,0.033,0.188c0.001,0.025,0.013,0.065,0.014,0.094c0.018,0.146,0.061,0.255,0.128,0.351
			c0,0.013,0.014,0.013,0.014,0.023l0.099,0.105c0.014,0.014,0.039,0.042,0.055,0.055c0.041,0.037,0.08,0.066,0.107,0.092
			c0.026,0.025,0.028,0.067,0.042,0.134c0.017,0.041,0.03,0.095,0.044,0.134c0.057,0.12,0.112,0.24,0.167,0.335
			c0.029,0.039,0.057,0.079,0.097,0.132c0.015,0.014,0.028,0.039,0.041,0.055l0.057,0.105c0,0.014,0.014,0.027,0.014,0.039
			c0.046,0.203,0.12,0.596-0.689,0.827c-0.797,0.247-1.561,0.578-1.88,1.327c-0.09,0.205-0.096,0.435-0.091,0.61
			c0,0.04,0.015,0.662,0.015,0.715"/>
	</g>
	<g>
		<path fill="none" stroke="#000000" stroke-width="0.8" stroke-miterlimit="10" d="M22.676,141.448l0.002,0.084
			c0.005,0.186,0.041,0.37,0.078,0.555l0.021,0.068c0.017,0.099,0.037,0.199,0.058,0.3l0.073,0.42
			c0.059,0.285,0.098,0.553,0.152,0.838c-0.111,0.119-0.274,0.292-0.404,0.414l-0.033,0.033c-0.205-0.198-0.358-0.328-0.46-0.427
			c0.027-0.235,0.054-0.489,0.083-0.727l0.072-0.54c0.016-0.066,0.013-0.152,0.029-0.236l0.029-0.186
			c0.028-0.152,0.057-0.322,0.053-0.475c0-0.033,0-0.066,0-0.099l-0.002-0.036"/>
		<path fill="none" stroke="#000000" stroke-width="0.8" stroke-miterlimit="10" d="M19.429,142.207
			c0.384-0.281,0.858-0.476,1.264-0.596c0.809-0.249,0.733-0.625,0.69-0.828c-0.001-0.025-0.016-0.052-0.041-0.081l-0.014-0.023
			c-0.016-0.027-0.043-0.056-0.07-0.081l-0.012-0.013l-0.016-0.026l-0.028-0.027v-0.013c-0.14-0.186-0.236-0.415-0.309-0.682
			c0-0.014,0-0.014-0.014-0.025c-0.068-0.039-0.123-0.079-0.178-0.131c-0.041-0.041-0.069-0.081-0.108-0.134
			c-0.058-0.106-0.1-0.213-0.116-0.349c-0.001-0.028-0.015-0.054-0.015-0.079c-0.016-0.068-0.018-0.136-0.029-0.204
			c-0.002-0.054-0.003-0.093-0.004-0.135c0-0.015,0-0.015,0-0.028c-0.019-0.16,0.083-0.364,0.269-0.42
			c0.012-0.002,0.012-0.002,0.027-0.002c-0.003-0.056-0.019-0.108-0.03-0.163c-0.016-0.065-0.032-0.135-0.033-0.215
			c-0.017-0.216-0.021-0.392-0.025-0.554c0.008-0.203,0.044-0.367,0.108-0.489c0.05-0.099,0.131-0.165,0.222-0.209
			c0.055-0.026,0.106-0.055,0.159-0.098c0.028-0.025,0.04-0.04,0.065-0.083c0.014-0.014,0.014-0.027,0.026-0.041l0.013-0.026
			c0.061-0.097,0.129-0.167,0.209-0.221c0.013-0.014,0.04-0.029,0.064-0.043c0.226-0.113,0.489-0.147,0.704-0.151
			c0.068-0.002,0.135-0.003,0.214-0.005c0.334-0.008,0.657,0.051,0.953,0.154c0.053,0.013,0.106,0.038,0.162,0.063
			c0.257,0.101,0.475,0.286,0.613,0.514c0.112,0.225,0.186,0.466,0.179,0.734c0.004,0.164-0.02,0.341-0.056,0.519
			c-0.011,0.051-0.01,0.107-0.022,0.16c0,0.028,0.001,0.057-0.013,0.07c0,0,0,0.013,0,0.025c0.177,0.05,0.287,0.251,0.278,0.413
			v0.014c0.001,0.042,0.001,0.083,0.005,0.15c0,0.066-0.013,0.123-0.023,0.188c0.001,0.026-0.011,0.066-0.011,0.095
			c-0.011,0.147-0.048,0.257-0.111,0.356c0.001,0.013-0.013,0.013-0.013,0.024l-0.092,0.11c-0.012,0.014-0.039,0.043-0.052,0.057
			c-0.039,0.04-0.08,0.069-0.104,0.097c-0.025,0.025-0.024,0.067-0.036,0.136c-0.013,0.041-0.025,0.096-0.039,0.135
			c-0.05,0.123-0.101,0.246-0.152,0.342c-0.024,0.041-0.051,0.083-0.089,0.137c-0.014,0.014-0.026,0.041-0.04,0.056l-0.05,0.108
			c0,0.015-0.012,0.028-0.012,0.04c-0.037,0.204-0.094,0.601,0.726,0.794c0.805,0.21,1.586,0.506,1.938,1.239
			c0.1,0.2,0.116,0.43,0.121,0.605c0.001,0.04,0.016,0.661,0.017,0.715"/>
	</g>
	<path fill="none" stroke="#000000" stroke-width="0.8" stroke-miterlimit="10" d="M13.194,142.479"/>
</g>
</svg>
