<?xml version="1.0" encoding="utf-8"?>
<!-- Generator: Adobe Illustrator 16.0.0, SVG Export Plug-In . SVG Version: 6.00 Build 0)  -->
<!DOCTYPE svg PUBLIC "-//W3C//DTD SVG 1.1//EN" "http://www.w3.org/Graphics/SVG/1.1/DTD/svg11.dtd">
<svg version="1.1" id="Layer_1" xmlns="http://www.w3.org/2000/svg" xmlns:xlink="http://www.w3.org/1999/xlink" x="0px" y="0px"
	 width="423.416px" height="423.416px" viewBox="0 0 423.416 423.416" enable-background="new 0 0 423.416 423.416"
	 xml:space="preserve">
<rect x="0.042" y="0.352" display="none" fill="#49967D" width="423.332" height="423.416"/>
<g id="grid" display="none">
	
		<rect display="inline" fill="none" stroke="#000000" stroke-width="0.2" stroke-miterlimit="10" width="423.416" height="423.416"/>
	
		<line display="inline" fill="none" stroke="#000000" stroke-width="0.2" stroke-miterlimit="10" x1="0" y1="403.259" x2="423.416" y2="403.259"/>
	
		<line display="inline" fill="none" stroke="#000000" stroke-width="0.2" stroke-miterlimit="10" x1="0" y1="383.101" x2="423.416" y2="383.101"/>
	
		<line display="inline" fill="none" stroke="#000000" stroke-width="0.2" stroke-miterlimit="10" x1="0" y1="362.94" x2="423.416" y2="362.94"/>
	
		<line display="inline" fill="none" stroke="#000000" stroke-width="0.2" stroke-miterlimit="10" x1="0" y1="342.783" x2="423.416" y2="342.783"/>
	
		<line display="inline" fill="none" stroke="#000000" stroke-width="0.2" stroke-miterlimit="10" x1="0" y1="322.627" x2="423.416" y2="322.627"/>
	
		<line display="inline" fill="none" stroke="#000000" stroke-width="0.2" stroke-miterlimit="10" x1="0" y1="302.47" x2="423.416" y2="302.47"/>
	
		<line display="inline" fill="none" stroke="#000000" stroke-width="0.2" stroke-miterlimit="10" x1="0" y1="282.312" x2="423.416" y2="282.312"/>
	
		<line display="inline" fill="none" stroke="#000000" stroke-width="0.2" stroke-miterlimit="10" x1="0" y1="262.153" x2="423.416" y2="262.153"/>
	
		<line display="inline" fill="none" stroke="#000000" stroke-width="0.2" stroke-miterlimit="10" x1="0" y1="241.996" x2="423.416" y2="241.996"/>
	
		<line display="inline" fill="none" stroke="#000000" stroke-width="0.2" stroke-miterlimit="10" x1="0" y1="221.837" x2="423.416" y2="221.837"/>
	
		<line display="inline" fill="none" stroke="#000000" stroke-width="0.2" stroke-miterlimit="10" x1="0" y1="201.578" x2="423.416" y2="201.578"/>
	
		<line display="inline" fill="none" stroke="#000000" stroke-width="0.2" stroke-miterlimit="10" x1="0" y1="181.419" x2="423.416" y2="181.419"/>
	
		<line display="inline" fill="none" stroke="#000000" stroke-width="0.2" stroke-miterlimit="10" x1="0" y1="161.262" x2="423.416" y2="161.262"/>
	
		<line display="inline" fill="none" stroke="#000000" stroke-width="0.2" stroke-miterlimit="10" x1="0" y1="141.105" x2="423.416" y2="141.105"/>
	
		<line display="inline" fill="none" stroke="#000000" stroke-width="0.2" stroke-miterlimit="10" x1="0" y1="120.946" x2="423.416" y2="120.946"/>
	
		<line display="inline" fill="none" stroke="#000000" stroke-width="0.2" stroke-miterlimit="10" x1="0" y1="100.789" x2="423.416" y2="100.789"/>
	
		<line display="inline" fill="none" stroke="#000000" stroke-width="0.2" stroke-miterlimit="10" x1="0" y1="80.631" x2="423.416" y2="80.631"/>
	
		<line display="inline" fill="none" stroke="#000000" stroke-width="0.2" stroke-miterlimit="10" x1="0" y1="60.473" x2="423.416" y2="60.473"/>
	
		<line display="inline" fill="none" stroke="#000000" stroke-width="0.2" stroke-miterlimit="10" x1="0" y1="40.316" x2="423.416" y2="40.316"/>
	
		<line display="inline" fill="none" stroke="#000000" stroke-width="0.2" stroke-miterlimit="10" x1="0" y1="20.157" x2="423.416" y2="20.157"/>
	
		<line display="inline" fill="none" stroke="#000000" stroke-width="0.2" stroke-miterlimit="10" x1="403.259" y1="0" x2="403.259" y2="423.416"/>
	
		<line display="inline" fill="none" stroke="#000000" stroke-width="0.2" stroke-miterlimit="10" x1="383.102" y1="0" x2="383.102" y2="423.416"/>
	
		<line display="inline" fill="none" stroke="#000000" stroke-width="0.2" stroke-miterlimit="10" x1="362.94" y1="0" x2="362.94" y2="423.416"/>
	
		<line display="inline" fill="none" stroke="#000000" stroke-width="0.2" stroke-miterlimit="10" x1="342.783" y1="0" x2="342.783" y2="423.416"/>
	
		<line display="inline" fill="none" stroke="#000000" stroke-width="0.2" stroke-miterlimit="10" x1="322.627" y1="0" x2="322.627" y2="423.416"/>
	
		<line display="inline" fill="none" stroke="#000000" stroke-width="0.2" stroke-miterlimit="10" x1="302.47" y1="0" x2="302.47" y2="423.416"/>
	
		<line display="inline" fill="none" stroke="#000000" stroke-width="0.2" stroke-miterlimit="10" x1="282.313" y1="0" x2="282.313" y2="423.416"/>
	
		<line display="inline" fill="none" stroke="#000000" stroke-width="0.2" stroke-miterlimit="10" x1="262.153" y1="0" x2="262.153" y2="423.416"/>
	
		<line display="inline" fill="none" stroke="#000000" stroke-width="0.2" stroke-miterlimit="10" x1="241.995" y1="0" x2="241.995" y2="423.416"/>
	
		<line display="inline" fill="none" stroke="#000000" stroke-width="0.2" stroke-miterlimit="10" x1="221.837" y1="0" x2="221.837" y2="423.416"/>
	
		<line display="inline" fill="none" stroke="#000000" stroke-width="0.2" stroke-miterlimit="10" x1="201.578" y1="0" x2="201.578" y2="423.416"/>
	
		<line display="inline" fill="none" stroke="#000000" stroke-width="0.2" stroke-miterlimit="10" x1="181.421" y1="0" x2="181.421" y2="423.416"/>
	
		<line display="inline" fill="none" stroke="#000000" stroke-width="0.2" stroke-miterlimit="10" x1="161.264" y1="0" x2="161.264" y2="423.416"/>
	
		<line display="inline" fill="none" stroke="#000000" stroke-width="0.2" stroke-miterlimit="10" x1="141.104" y1="0" x2="141.104" y2="423.416"/>
	
		<line display="inline" fill="none" stroke="#000000" stroke-width="0.2" stroke-miterlimit="10" x1="120.946" y1="0" x2="120.946" y2="423.416"/>
	
		<line display="inline" fill="none" stroke="#000000" stroke-width="0.2" stroke-miterlimit="10" x1="100.789" y1="0" x2="100.789" y2="423.416"/>
	
		<line display="inline" fill="none" stroke="#000000" stroke-width="0.2" stroke-miterlimit="10" x1="80.631" y1="0" x2="80.631" y2="423.416"/>
	
		<line display="inline" fill="none" stroke="#000000" stroke-width="0.2" stroke-miterlimit="10" x1="60.473" y1="0" x2="60.473" y2="423.416"/>
	
		<line display="inline" fill="none" stroke="#000000" stroke-width="0.2" stroke-miterlimit="10" x1="40.316" y1="0" x2="40.316" y2="423.416"/>
	
		<line display="inline" fill="none" stroke="#000000" stroke-width="0.2" stroke-miterlimit="10" x1="20.157" y1="0" x2="20.157" y2="423.416"/>
</g>
<path fill="#FFFFFF" d="M10.25,5c-4.962,0-9,4.083-9,9.102c0,0.296,0.239,0.535,0.534,0.535c0.296,0,0.535-0.239,0.535-0.535
	c0-4.429,3.558-8.032,7.932-8.032c4.373,0,7.932,3.591,7.932,8.003c0,0.296,0.239,0.535,0.534,0.535
	c0.295,0,0.534-0.239,0.534-0.535C19.25,9.069,15.212,5,10.25,5z"/>
<rect x="1.784" y="13.769" fill="#FFFFFF" width="3.976" height="0.867"/>
<rect x="14.768" y="13.769" fill="#FFFFFF" width="3.976" height="0.867"/>
<g>
	<path fill="#99CCCC" d="M8.225,49.593c1.565,0.986,3.532,2.29,3.855,2.655c0.184,0.217,0.273,0.493,0.251,0.774
		c-0.023,0.284-0.155,0.542-0.37,0.726C11.77,53.91,11.527,54,11.276,54c-0.311,0-0.604-0.136-0.806-0.372
		C10.147,53.248,9.05,51.211,8.225,49.593 M6.597,47.507c-0.07,0-0.14,0.025-0.195,0.072c-0.082,0.07-0.12,0.176-0.102,0.281
		c0.062,0.357,2.745,5.635,3.408,6.415C10.101,54.735,10.671,55,11.276,55c0.488,0,0.962-0.175,1.334-0.492
		c0.418-0.357,0.673-0.856,0.718-1.405c0.043-0.549-0.129-1.083-0.485-1.502c-0.663-0.779-5.806-3.959-6.147-4.077
		C6.663,47.513,6.63,47.507,6.597,47.507L6.597,47.507z"/>
</g>
<path fill="#99CCCC" d="M19.25,52.419c0-5.003-4.038-9.073-9-9.073s-9,4.083-9,9.102c0,0.296,0.239,0.535,0.534,0.535
	c0.296,0,0.535-0.239,0.535-0.535c0-4.429,3.558-8.032,7.932-8.032c4.373,0,7.932,3.591,7.932,8.003
	c0,0.296,0.239,0.535,0.534,0.535C19.012,52.954,19.25,52.714,19.25,52.419"/>
<rect x="1.784" y="52.115" fill="#99CCCC" width="3.976" height="0.867"/>
<rect x="14.768" y="52.115" fill="#99CCCC" width="3.976" height="0.867"/>
<g>
	<g>
		<path fill="#FFFFFF" d="M15.742,82.979h-2.188v1.094H6.445v-1.094H4.258v1.094H1.25v13.933h17.5V84.073h-3.008V82.979z
			 M14.102,83.526h1.094v1.641h-1.094V83.526z M4.805,83.526h1.094v1.641H4.805V83.526z M1.797,97.458v-10.39h16.406v10.391
			L1.797,97.458L1.797,97.458z M18.203,84.62v1.901H1.797V84.62h2.461v1.094h2.188V84.62h7.109v1.094h2.188V84.62H18.203z"/>
		<path fill="#FFFFFF" d="M3.711,91.443h3.281v-3.281H3.711V91.443z M4.258,88.708h2.188v2.188H4.258V88.708z"/>
		<path fill="#FFFFFF" d="M3.711,96.365h3.281v-3.281H3.711V96.365z M4.258,93.63h2.188v2.188H4.258V93.63z"/>
		<path fill="#FFFFFF" d="M13.008,91.443h3.281v-3.281h-3.281V91.443z M13.555,88.708h2.188v2.188h-2.188V88.708z"/>
		<path fill="#FFFFFF" d="M13.008,96.365h3.281v-3.281h-3.281V96.365z M13.555,93.63h2.188v2.188h-2.188V93.63z"/>
		<path fill="#FFFFFF" d="M8.359,91.443h3.281v-3.281H8.359V91.443z M8.906,88.708h2.188v2.188H8.906V88.708z"/>
		<path fill="#FFFFFF" d="M8.359,96.365h3.281v-3.281H8.359V96.365z M8.906,93.63h2.188v2.188H8.906V93.63z"/>
	</g>
</g>
<g>
	<g>
		<path fill="#99CCCC" d="M15.742,123.75h-2.188v1.094H6.445v-1.094H4.258v1.094H1.25v13.933h17.5v-13.933h-3.008V123.75z
			 M14.102,124.297h1.094v1.641h-1.094V124.297z M4.805,124.297h1.094v1.641H4.805V124.297z M1.797,138.229v-10.391h16.406v10.391
			H1.797z M18.203,125.391v1.901H1.797v-1.901h2.461v1.094h2.188v-1.094h7.109v1.094h2.188v-1.094H18.203z"/>
		<path fill="#99CCCC" d="M3.711,132.214h3.281v-3.281H3.711V132.214z M4.258,129.479h2.188v2.188H4.258V129.479z"/>
		<path fill="#99CCCC" d="M3.711,137.136h3.281v-3.281H3.711V137.136z M4.258,134.401h2.188v2.188H4.258V134.401z"/>
		<path fill="#99CCCC" d="M13.008,132.214h3.281v-3.281h-3.281V132.214z M13.555,129.479h2.188v2.188h-2.188V129.479z"/>
		<path fill="#99CCCC" d="M13.008,137.136h3.281v-3.281h-3.281V137.136z M13.555,134.401h2.188v2.188h-2.188V134.401z"/>
		<path fill="#99CCCC" d="M8.359,132.214h3.281v-3.281H8.359V132.214z M8.906,129.479h2.188v2.188H8.906V129.479z"/>
		<path fill="#99CCCC" d="M8.359,137.136h3.281v-3.281H8.359V137.136z M8.906,134.401h2.188v2.188H8.906V134.401z"/>
	</g>
</g>
<g>
	<g>
		<g>
			<g>
				<path fill="#99CCCC" d="M10.946,220.812H9.132c-0.345,0-0.446,0-1.389-2.379l-0.628-0.262c-1.937,0.896-2.169,0.896-2.27,0.896
					c-0.128,0-0.272-0.06-0.362-0.147l-1.282-1.282c-0.256-0.258-0.322-0.324,0.696-2.678l-0.253-0.609
					c-2.394-0.873-2.394-0.979-2.394-1.347v-1.813c0-0.363,0-0.456,2.386-1.398l0.253-0.613c-1.073-2.309-1-2.383-0.742-2.643
					l1.286-1.281c0.089-0.089,0.233-0.146,0.36-0.146c0.093,0,0.335,0,2.304,0.847l0.625-0.26c0.876-2.389,0.988-2.389,1.333-2.389
					h1.814c0.345,0,0.446,0,1.388,2.38l0.628,0.259c1.934-0.896,2.167-0.896,2.268-0.896c0.127,0,0.271,0.058,0.361,0.146
					l1.286,1.28c0.249,0.252,0.321,0.324-0.697,2.68l0.251,0.613c2.396,0.871,2.396,0.977,2.396,1.34v1.813
					c0,0.364-0.001,0.457-2.387,1.4l-0.252,0.611c1.075,2.309,1,2.383,0.746,2.642l-1.289,1.284c-0.09,0.091-0.234,0.146-0.36,0.146
					l0,0c-0.091,0-0.333,0-2.301-0.849l-0.627,0.259C11.402,220.812,11.3,220.812,10.946,220.812z M9.392,219.819h1.286
					c0.171-0.372,0.502-1.219,0.767-1.946c0.046-0.129,0.146-0.233,0.272-0.285l1.011-0.418c0.119-0.048,0.254-0.048,0.373,0.004
					c0.727,0.315,1.586,0.668,1.975,0.802l0.9-0.898c-0.144-0.393-0.51-1.215-0.834-1.909c-0.058-0.125-0.061-0.272-0.008-0.403
					l0.417-1.012c0.051-0.124,0.149-0.221,0.272-0.27c0.734-0.289,1.585-0.646,1.959-0.827v-1.258
					c-0.377-0.172-1.225-0.499-1.952-0.764c-0.128-0.045-0.232-0.145-0.285-0.274l-0.417-1.012c-0.052-0.125-0.05-0.268,0.004-0.393
					c0.311-0.717,0.659-1.566,0.795-1.96l-0.902-0.898c-0.385,0.144-1.224,0.512-1.929,0.84c-0.121,0.056-0.259,0.061-0.384,0.008
					l-1.011-0.417c-0.122-0.05-0.219-0.149-0.268-0.274c-0.289-0.732-0.645-1.584-0.826-1.955H9.323
					c-0.172,0.375-0.502,1.221-0.767,1.948c-0.045,0.13-0.146,0.235-0.271,0.287l-1.009,0.418c-0.12,0.05-0.252,0.049-0.372-0.003
					c-0.727-0.315-1.59-0.667-1.979-0.8l-0.9,0.899c0.145,0.39,0.508,1.215,0.833,1.91c0.06,0.126,0.062,0.274,0.009,0.405
					l-0.42,1.009c-0.05,0.124-0.148,0.221-0.271,0.269c-0.732,0.288-1.584,0.644-1.958,0.824v1.261
					c0.377,0.174,1.225,0.5,1.952,0.766c0.128,0.048,0.231,0.146,0.285,0.273l0.415,1.01c0.053,0.125,0.051,0.268-0.003,0.393
					c-0.311,0.717-0.659,1.566-0.795,1.96l0.9,0.897c0.385-0.145,1.223-0.512,1.929-0.84c0.122-0.057,0.261-0.059,0.384-0.011
					l1.011,0.419c0.122,0.053,0.22,0.15,0.268,0.274C8.855,218.601,9.209,219.452,9.392,219.819z M10,215.201
					c-1.729,0-3.134-1.411-3.134-3.139c0-1.73,1.406-3.139,3.134-3.139s3.135,1.409,3.135,3.139S11.728,215.201,10,215.201z
					 M10,209.913c-1.192,0-2.165,0.964-2.165,2.149c0,1.186,0.972,2.15,2.165,2.15c1.194,0,2.165-0.965,2.165-2.15
					C12.164,210.875,11.194,209.913,10,209.913z"/>
			</g>
		</g>
	</g>
</g>
<g>
	<g>
		<g>
			<g>
				<path fill="#FFFFFF" d="M10.946,180.002H9.132c-0.345,0-0.446,0-1.389-2.379l-0.628-0.261c-1.937,0.896-2.169,0.896-2.27,0.896
					c-0.128,0-0.272-0.058-0.362-0.147l-1.282-1.282c-0.256-0.258-0.322-0.324,0.696-2.678l-0.253-0.61
					c-2.394-0.873-2.394-0.98-2.394-1.346v-1.813c0-0.363,0-0.456,2.386-1.398l0.253-0.613c-1.073-2.309-1-2.383-0.742-2.643
					l1.286-1.281c0.089-0.089,0.233-0.146,0.36-0.146c0.093,0,0.335,0,2.304,0.847l0.625-0.26C8.598,162.5,8.71,162.5,9.055,162.5
					h1.814c0.345,0,0.446,0,1.388,2.38l0.628,0.259c1.934-0.895,2.167-0.895,2.268-0.895c0.127,0,0.271,0.058,0.361,0.146
					l1.286,1.28c0.249,0.252,0.321,0.324-0.697,2.68l0.251,0.613c2.396,0.871,2.396,0.977,2.396,1.34v1.813
					c0,0.364-0.001,0.457-2.387,1.4l-0.252,0.612c1.075,2.308,1,2.383,0.746,2.641l-1.289,1.285c-0.09,0.09-0.234,0.146-0.36,0.146
					l0,0c-0.091,0-0.333,0-2.301-0.849l-0.627,0.259C11.402,180.002,11.3,180.002,10.946,180.002z M9.392,179.011h1.286
					c0.171-0.373,0.502-1.219,0.767-1.947c0.046-0.129,0.146-0.234,0.272-0.285l1.011-0.418c0.119-0.048,0.254-0.048,0.373,0.004
					c0.727,0.315,1.586,0.668,1.975,0.801l0.9-0.899c-0.144-0.391-0.51-1.214-0.834-1.909c-0.058-0.125-0.061-0.274-0.008-0.405
					l0.417-1.01c0.051-0.124,0.149-0.221,0.272-0.269c0.734-0.289,1.585-0.646,1.959-0.828v-1.258
					c-0.377-0.172-1.225-0.499-1.952-0.764c-0.128-0.045-0.232-0.145-0.285-0.274l-0.417-1.012c-0.052-0.125-0.05-0.268,0.004-0.393
					c0.311-0.717,0.659-1.566,0.795-1.96l-0.902-0.898c-0.385,0.144-1.224,0.512-1.929,0.84c-0.121,0.056-0.259,0.061-0.384,0.008
					l-1.011-0.417c-0.122-0.05-0.219-0.149-0.268-0.274c-0.289-0.732-0.645-1.584-0.826-1.955H9.323
					c-0.172,0.375-0.502,1.221-0.767,1.948c-0.045,0.13-0.146,0.235-0.271,0.287l-1.009,0.418c-0.12,0.05-0.252,0.049-0.372-0.003
					c-0.727-0.315-1.59-0.667-1.979-0.8l-0.9,0.899c0.145,0.39,0.508,1.215,0.833,1.91c0.06,0.126,0.062,0.274,0.009,0.405
					l-0.42,1.009c-0.05,0.124-0.148,0.221-0.271,0.269c-0.732,0.288-1.584,0.644-1.958,0.824v1.26
					c0.377,0.173,1.225,0.5,1.952,0.765c0.128,0.048,0.231,0.148,0.285,0.274l0.415,1.01c0.053,0.124,0.051,0.267-0.003,0.392
					c-0.311,0.717-0.659,1.566-0.795,1.96l0.9,0.898c0.385-0.144,1.223-0.511,1.929-0.84c0.122-0.056,0.261-0.058,0.384-0.01
					l1.011,0.419c0.122,0.051,0.22,0.15,0.268,0.274C8.855,177.792,9.209,178.643,9.392,179.011z M10,174.392
					c-1.729,0-3.134-1.411-3.134-3.139c0-1.73,1.406-3.139,3.134-3.139s3.135,1.409,3.135,3.139
					C13.135,172.982,11.728,174.392,10,174.392z M10,169.104c-1.192,0-2.165,0.964-2.165,2.149c0,1.186,0.972,2.15,2.165,2.15
					c1.194,0,2.165-0.965,2.165-2.15C12.164,170.066,11.194,169.104,10,169.104z"/>
			</g>
		</g>
	</g>
</g>
<g>
	<path fill="#FFFFFF" d="M8.179,10.843c1.565,0.986,3.532,2.29,3.855,2.655c0.184,0.217,0.273,0.493,0.251,0.774
		c-0.023,0.284-0.155,0.542-0.37,0.726c-0.191,0.163-0.435,0.253-0.685,0.253c-0.311,0-0.604-0.136-0.806-0.372
		C10.101,14.498,9.004,12.461,8.179,10.843 M6.551,8.757c-0.07,0-0.14,0.025-0.195,0.072c-0.082,0.07-0.12,0.176-0.102,0.281
		C6.316,9.468,9,14.745,9.662,15.525c0.392,0.46,0.963,0.725,1.568,0.725c0.488,0,0.962-0.175,1.334-0.492
		c0.418-0.357,0.673-0.856,0.718-1.405c0.043-0.549-0.129-1.083-0.485-1.502c-0.663-0.779-5.806-3.959-6.147-4.077
		C6.617,8.763,6.583,8.757,6.551,8.757L6.551,8.757z"/>
</g>
<g>
	<g>
		<g>
			<path fill="#FFFFFF" d="M12.442,294.378H8.408c-0.304,0-0.552,0.246-0.552,0.55v1.238c0,0.304,0.248,0.55,0.552,0.55h4.034
				c0.304,0,0.551-0.246,0.551-0.55v-1.238C12.993,294.624,12.746,294.378,12.442,294.378z M12.284,296.01H8.566v-0.924h3.718
				V296.01z"/>
		</g>
	</g>
	<g>
		<g>
			<path fill="#FFFFFF" d="M19.391,291.313l0.006-0.004l-2.659-5.258c-0.215-0.424-0.644-0.688-1.12-0.688h-0.506v-0.488
				c0-0.195-0.158-0.354-0.354-0.354H6.091c-0.196,0-0.354,0.158-0.354,0.354v0.488H5.231c-0.476,0-0.905,0.264-1.12,0.688
				l-2.659,5.258l0.006,0.004c-0.114,0.187-0.179,0.408-0.179,0.641v5.554c0,0.685,0.557,1.242,1.241,1.242h15.808
				c0.685,0,1.241-0.558,1.241-1.242v-5.554C19.57,291.722,19.505,291.5,19.391,291.313z M15.113,286.153h0.506
				c0.177,0,0.336,0.099,0.417,0.257l2.176,4.305h-1.479v-1.325c0-0.195-0.159-0.354-0.354-0.354H15.94v-1.902
				c0-0.195-0.159-0.354-0.355-0.354h-0.472V286.153z M16.024,289.744v0.971h-1.871c-0.321,0-0.613,0.188-0.746,0.479l-0.51,1.134
				c-0.005,0.012-0.016,0.021-0.027,0.021H7.98c-0.012,0-0.022-0.009-0.027-0.021l-0.51-1.134c-0.133-0.291-0.425-0.479-0.747-0.479
				h-1.87v-0.971H16.024z M6.445,285.231h7.959v1.547H6.445V285.231z M15.229,287.487v1.549h-9.61v-1.549H15.229z M4.814,286.41
				c0.08-0.158,0.239-0.257,0.417-0.257h0.506v0.625H5.265c-0.196,0-0.355,0.158-0.355,0.354v1.902H4.472
				c-0.196,0-0.355,0.156-0.355,0.354v1.324h-1.48L4.814,286.41z M18.329,297.96H2.521c-0.25,0-0.454-0.202-0.454-0.452v-5.554
				c0-0.248,0.204-0.454,0.454-0.454h4.175c0.012,0,0.023,0.008,0.028,0.021l0.512,1.133c0.131,0.291,0.423,0.48,0.745,0.48h4.889
				c0.321,0,0.613-0.189,0.745-0.48l0.511-1.133l0,0c0.005-0.013,0.015-0.021,0.027-0.021h4.176c0.25,0,0.454,0.206,0.454,0.454
				v5.554l0,0C18.783,297.758,18.579,297.96,18.329,297.96z"/>
		</g>
	</g>
</g>
<g>
	<g>
		<g>
			<path fill="#99CCCC" d="M12.412,255.294H8.378c-0.304,0-0.552,0.246-0.552,0.551v1.237c0,0.304,0.248,0.55,0.552,0.55h4.034
				c0.304,0,0.551-0.246,0.551-0.55v-1.238C12.963,255.54,12.716,255.294,12.412,255.294z M12.255,256.926H8.536v-0.924h3.719
				V256.926z"/>
		</g>
	</g>
	<g>
		<g>
			<path fill="#99CCCC" d="M19.361,252.229l0.006-0.004l-2.658-5.257c-0.215-0.424-0.644-0.688-1.12-0.688h-0.505v-0.489
				c0-0.195-0.159-0.354-0.354-0.354H6.061c-0.196,0-0.354,0.158-0.354,0.354v0.489H5.201c-0.476,0-0.905,0.263-1.12,0.688
				l-2.658,5.257l0.006,0.004c-0.114,0.187-0.179,0.408-0.179,0.642v5.553c0,0.687,0.557,1.242,1.241,1.242h15.808
				c0.685,0,1.242-0.558,1.242-1.242v-5.553C19.541,252.638,19.476,252.416,19.361,252.229z M15.084,247.069h0.505
				c0.177,0,0.336,0.099,0.417,0.257l2.177,4.304h-1.48v-1.324c0-0.195-0.158-0.354-0.354-0.354H15.91v-1.902
				c0-0.195-0.158-0.354-0.355-0.354h-0.471V247.069z M15.994,250.661v0.97h-1.871c-0.321,0-0.614,0.19-0.746,0.479l-0.51,1.135
				c-0.005,0.011-0.015,0.02-0.027,0.02H7.951c-0.012,0-0.022-0.009-0.027-0.02l-0.51-1.135c-0.133-0.289-0.425-0.479-0.747-0.479
				h-1.87v-0.97H15.994z M6.416,246.147h7.96v1.547h-7.96V246.147z M15.2,248.405v1.547H5.59v-1.547H15.2z M4.785,247.327
				c0.08-0.158,0.24-0.256,0.417-0.256h0.506v0.625H5.236c-0.197,0-0.355,0.158-0.355,0.354v1.902H4.443
				c-0.196,0-0.355,0.158-0.355,0.354v1.324h-1.48L4.785,247.327z M18.299,258.876H2.491c-0.25,0-0.454-0.202-0.454-0.452v-5.553
				c0-0.248,0.204-0.455,0.454-0.455h4.176c0.012,0,0.023,0.008,0.028,0.021l0.511,1.133c0.132,0.293,0.424,0.48,0.745,0.48h4.889
				c0.321,0,0.613-0.188,0.745-0.48l0.511-1.133l0,0c0.005-0.013,0.015-0.021,0.028-0.021H18.3c0.25,0,0.454,0.207,0.454,0.455
				v5.553l0,0C18.753,258.674,18.549,258.876,18.299,258.876z"/>
		</g>
	</g>
</g>
<g>
	<path fill="#99CCCC" d="M43.634,17.015c0.09,0.09,0.202,0.135,0.325,0.135s0.234-0.045,0.324-0.135L50,11.298l5.717,5.717
		c0.09,0.09,0.202,0.135,0.325,0.135c0.111,0,0.234-0.045,0.324-0.135c0.179-0.179,0.179-0.47,0-0.648l-5.717-5.717l5.717-5.717
		c0.179-0.179,0.179-0.47,0-0.649c-0.179-0.179-0.47-0.179-0.649,0L50,10l-5.717-5.717c-0.179-0.179-0.47-0.179-0.649,0
		c-0.179,0.179-0.179,0.47,0,0.649l5.718,5.717l-5.718,5.717C43.455,16.545,43.455,16.836,43.634,17.015z"/>
</g>
<path fill="#99CCCC" d="M57.446,44.079c-0.255-0.256-0.669-0.256-0.924,0l-8.982,9.296l-4.062-3.957
	c-0.256-0.255-0.669-0.255-0.925,0c-0.254,0.256-0.254,0.671,0,0.927l4.524,4.42c0.127,0.127,0.294,0.191,0.463,0.191
	c0.167,0,0.335-0.063,0.462-0.191l9.444-9.76C57.702,44.749,57.702,44.334,57.446,44.079z"/>
<g>
	<path fill="none" stroke="#99CCCC" stroke-miterlimit="10" d="M53.577,93.576c1.082-1.159,1.747-2.708,1.747-4.417
		c0-3.583-2.903-6.486-6.486-6.486c-3.583,0-6.486,2.903-6.486,6.486c0,3.581,2.903,6.485,6.486,6.485
		C50.71,95.644,52.393,94.845,53.577,93.576"/>
	<line fill="none" stroke="#99CCCC" stroke-miterlimit="10" x1="53.315" y1="93.314" x2="53.577" y2="93.576"/>
	<line fill="none" stroke="#99CCCC" stroke-miterlimit="10" x1="57.5" y1="97.5" x2="53.577" y2="93.576"/>
</g>
<g>
	<rect x="43.75" y="126.318" fill="#99CCCC" width="14" height="1"/>
	<rect x="43.75" y="131.409" fill="#99CCCC" width="14" height="1"/>
	<rect x="43.75" y="136.5" fill="#99CCCC" width="14" height="1"/>
</g>
<g>
	<rect x="43.75" y="170.25" fill="#99CCCC" width="14" height="1"/>
	<rect x="50.25" y="163.75" fill="#99CCCC" width="1" height="14"/>
</g>
<g transform="translate(0,-952.36215)">
	<path fill="#99CCCC" d="M46.55,1196.559c-0.205,0.021-0.379,0.211-0.378,0.418v6.676h-4.589c-0.013,0-0.026,0-0.04,0
		c-0.205,0.02-0.379,0.212-0.378,0.418v5.424c-0.003,0.221,0.197,0.423,0.417,0.423c0.22,0,0.42-0.202,0.417-0.423v-5.007h6.676
		v6.258h-7.093c-0.221-0.003-0.423,0.197-0.423,0.418c0,0.22,0.203,0.42,0.423,0.417h7.51c0.218,0,0.417-0.199,0.417-0.417v-6.676
		h1.669v6.676c0,0.218,0.199,0.417,0.417,0.417h7.51c0.219,0,0.417-0.199,0.417-0.417v-7.093c0-0.221-0.199-0.418-0.417-0.418
		h-4.589v-6.676c0-0.219-0.199-0.418-0.417-0.418h-7.51C46.576,1196.559,46.563,1196.559,46.55,1196.559z M47.006,1197.393h6.675
		v6.26h-6.675V1197.393z M52.013,1204.487h6.675v6.258h-6.675V1204.487z"/>
</g>
<g>
	<g id="_153569496">
		<path fill="#010101" d="M98,4.347v7.991h-1.775h-0.339l-0.224,0.254l-2.377,2.7V13.09v-0.75h-0.75h-6.399V4.347H98 M98.271,3.597
			H85.865c-0.264,0-0.479,0.212-0.479,0.475v8.542c0,0.262,0.216,0.477,0.479,0.477h6.67v3.556c0,0.131,0.108,0.236,0.239,0.236
			c0.074,0,0.137-0.03,0.182-0.081l3.269-3.713h2.046c0.262,0,0.479-0.213,0.479-0.475V4.071C98.75,3.809,98.533,3.597,98.271,3.597
			L98.271,3.597z"/>
	</g>
	<path fill="none" stroke="#010101" stroke-width="0.75" stroke-miterlimit="10" d="M85.816,7.418H83.75
		c-0.229,0-0.417,0.186-0.417,0.414v7.456c0,0.228,0.188,0.414,0.417,0.414h1.787l2.853,3.238c0.039,0.045,0.095,0.073,0.159,0.073
		c0.115,0,0.208-0.092,0.208-0.208l0,0v-3.103h3.814"/>
</g>
<path fill="#FEFFFF" stroke="#FFFFFF" stroke-width="0.25" stroke-miterlimit="10" d="M95.22,48.364
	c-0.706-2.647-2.261-3.572-3.345-3.895v-0.457c0-0.639-0.521-1.159-1.159-1.159c-0.638,0-1.159,0.521-1.159,1.159v0.456
	c-1.084,0.322-2.638,1.247-3.345,3.896c-1.052,3.946-0.724,7.242-3.029,7.528v1.448h7.533h7.533v-1.448
	C95.942,55.605,96.271,52.31,95.22,48.364z M90.136,44.014c0-0.319,0.26-0.579,0.58-0.579c0.32,0,0.58,0.26,0.58,0.579v0.327
	c-0.226-0.033-0.4-0.04-0.496-0.04c-0.054,0-0.083,0.003-0.083,0.003S90.688,44.3,90.633,44.3c-0.096,0-0.27,0.006-0.496,0.04
	v-0.327H90.136z M97.668,56.761h-6.954h-6.953v-0.405c1.628-0.521,1.971-2.482,2.362-4.72c0.166-0.947,0.353-2.02,0.648-3.125
	c0.921-3.456,3.377-3.631,3.86-3.631c0.026,0,0.043,0,0.046,0l0.037,0.002l0.035-0.002c0.006,0,0.022,0,0.049,0
	c0.483,0,2.938,0.175,3.86,3.631c0.295,1.106,0.482,2.179,0.647,3.125c0.393,2.238,0.734,4.198,2.363,4.72V56.761L97.668,56.761z"/>
<rect x="83.5" y="93.143" fill="none" stroke="#FFFFFF" stroke-width="0.75" stroke-miterlimit="10" width="5.446" height="4.357"/>
<rect x="93.304" y="93.143" fill="none" stroke="#FFFFFF" stroke-width="0.75" stroke-miterlimit="10" width="5.446" height="4.357"/>
<rect x="88.402" y="85.522" fill="none" stroke="#FFFFFF" stroke-width="0.75" stroke-miterlimit="10" width="5.446" height="4.349"/>
<rect x="85.815" y="91.118" fill="#FFFFFF" width="0.817" height="2.025"/>
<rect x="95.618" y="91.118" fill="#FFFFFF" width="0.817" height="2.025"/>
<rect x="90.716" y="90.011" fill="#FFFFFF" width="0.817" height="1.089"/>
<rect x="85.815" y="91.1" fill="#FFFFFF" width="10.62" height="0.817"/>
<g>
	<polygon fill="#99CCCC" points="90.458,163.111 80.952,172.616 81.591,173.257 90.458,164.39 99.325,173.257 99.965,172.616 	"/>
	<polygon fill="#99CCCC" points="96.124,178.251 84.606,178.251 84.606,171.892 83.693,171.892 83.693,179.389 97.038,179.389 
		97.038,171.892 96.124,171.892 	"/>
</g>
<g>
	<circle fill="#FFFFFF" cx="50.358" cy="286.59" r="1.59"/>
	<circle fill="#FFFFFF" cx="50.34" cy="291.968" r="1.59"/>
	<circle fill="#FFFFFF" cx="50.34" cy="297.36" r="1.59"/>
</g>
<g>
	<circle cx="50.358" cy="327.639" r="1.59"/>
	<circle cx="50.34" cy="333.017" r="1.59"/>
	<circle cx="50.34" cy="338.409" r="1.59"/>
</g>
<path fill="#99CCCC" stroke="#99CCCC" stroke-width="0.25" stroke-miterlimit="10" d="M93.155,219.075h4.978v-9.482v-0.394v-5.492
	H82.784v5.472v0.395v9.481h9.976h0.395L93.155,219.075L93.155,219.075z M97.757,218.68h-4.602v-9.086h4.583v9.086H97.757z
	 M83.178,204.102h14.559v5.077h-4.583h-0.395h-9.581V204.102z M83.178,218.68v-9.086h9.581v9.086H83.178z"/>
<path fill="#99CCCC" stroke="#99CCCC" stroke-width="0.25" stroke-miterlimit="10" d="M99.292,129.132H89.68
	c-0.124,0-0.226,0.104-0.226,0.229v7.855c0,0.126,0.102,0.228,0.226,0.228h0.88v1.746c0,0.096,0.058,0.179,0.139,0.211
	c0.026,0.014,0.056,0.018,0.089,0.018c0.062,0,0.123-0.027,0.168-0.076l1.666-1.896h6.667c0.125,0,0.225-0.101,0.225-0.23v-7.855
	C99.517,129.234,99.417,129.132,99.292,129.132z M90.79,136.991h-0.88v-7.403h9.154v7.403h-6.539c-0.065,0-0.127,0.027-0.169,0.077
	l-1.34,1.522v-1.375C91.015,137.093,90.914,136.991,90.79,136.991z"/>
<polygon fill="none" stroke="#99CCCC" stroke-width="0.75" stroke-miterlimit="10" points="93.077,250.518 87.894,250.518 
	86.046,254.213 94.924,254.213 "/>
<polygon fill="none" stroke="#99CCCC" stroke-width="0.75" stroke-miterlimit="10" points="96.234,255.958 84.993,255.958 
	82.607,259.498 98.619,259.498 "/>
<polygon fill="none" stroke="#99CCCC" stroke-width="0.75" stroke-miterlimit="10" points="90.613,244.873 88.766,248.568 
	92.461,248.568 "/>
<g>
	
		<rect x="3.744" y="323.991" fill="none" stroke="#FFFFFF" stroke-width="0.75" stroke-miterlimit="10" width="4.409" height="4.405"/>
	
		<rect x="8.153" y="328.396" fill="none" stroke="#FFFFFF" stroke-width="0.75" stroke-miterlimit="10" width="4.41" height="4.407"/>
	
		<rect x="12.584" y="332.835" fill="none" stroke="#FFFFFF" stroke-width="0.75" stroke-miterlimit="10" width="4.41" height="4.406"/>
	
		<rect x="8.161" y="337.241" fill="none" stroke="#FFFFFF" stroke-width="0.75" stroke-miterlimit="10" width="4.409" height="4.405"/>
</g>
<g>
	
		<rect x="3.744" y="364.25" fill="none" stroke="#99CCCC" stroke-width="0.75" stroke-miterlimit="10" width="4.217" height="4.214"/>
	
		<rect x="7.961" y="368.464" fill="none" stroke="#99CCCC" stroke-width="0.75" stroke-miterlimit="10" width="4.216" height="4.212"/>
	
		<rect x="12.198" y="372.707" fill="none" stroke="#99CCCC" stroke-width="0.75" stroke-miterlimit="10" width="4.217" height="4.213"/>
	
		<rect x="7.968" y="376.92" fill="none" stroke="#99CCCC" stroke-width="0.75" stroke-miterlimit="10" width="4.217" height="4.214"/>
</g>
<g>
	<g>
		<path fill="#FFFFFF" d="M94.159,287.5h-9.446c-0.843,0-1.528,0.687-1.528,1.528v6.455c0,0.844,0.685,1.529,1.528,1.529h9.443
			c0.843,0,1.528-0.688,1.528-1.529v-6.452C95.688,288.188,95.002,287.5,94.159,287.5z M94.989,295.483
			c0,0.457-0.373,0.83-0.83,0.83h-9.446c-0.458,0-0.83-0.373-0.83-0.83v-6.452c0-0.458,0.373-0.83,0.83-0.83h9.443
			c0.458,0,0.83,0.372,0.83,0.83v6.452H94.989z"/>
		<path fill="#FFFFFF" d="M91.068,292.176l3.057-2.741c0.142-0.129,0.155-0.35,0.025-0.494c-0.129-0.143-0.349-0.153-0.494-0.023
			L89.44,292.7l-0.822-0.734c-0.003-0.003-0.005-0.005-0.005-0.008c-0.019-0.02-0.037-0.033-0.057-0.049l-3.347-2.995
			c-0.145-0.129-0.365-0.116-0.494,0.026c-0.129,0.146-0.116,0.365,0.028,0.494l3.093,2.767l-3.081,2.885
			c-0.14,0.132-0.147,0.353-0.015,0.493c0.07,0.072,0.163,0.109,0.256,0.109c0.085,0,0.17-0.029,0.238-0.094l3.127-2.925
			l0.849,0.759c0.067,0.061,0.15,0.088,0.233,0.088s0.168-0.031,0.233-0.09l0.871-0.781l3.109,2.953
			c0.067,0.063,0.155,0.096,0.24,0.096c0.093,0,0.184-0.035,0.253-0.107c0.132-0.14,0.127-0.361-0.013-0.494L91.068,292.176z"/>
	</g>
</g>
<g>
	<g>
		<path fill="#99CCCC" d="M95.004,328.349h-9.446c-0.843,0-1.528,0.687-1.528,1.527v6.456c0,0.843,0.685,1.528,1.528,1.528h9.443
			c0.843,0,1.528-0.688,1.528-1.528v-6.453C96.533,329.035,95.847,328.349,95.004,328.349z M95.834,336.332
			c0,0.457-0.373,0.83-0.83,0.83h-9.446c-0.458,0-0.83-0.373-0.83-0.83v-6.453c0-0.458,0.373-0.83,0.83-0.83h9.443
			c0.458,0,0.83,0.372,0.83,0.83v6.453H95.834z"/>
		<path fill="#99CCCC" d="M91.914,333.022l3.057-2.74c0.142-0.131,0.155-0.35,0.025-0.494c-0.129-0.143-0.349-0.155-0.494-0.025
			l-4.216,3.783l-0.822-0.734c-0.003-0.002-0.005-0.004-0.005-0.008c-0.019-0.018-0.037-0.033-0.057-0.049l-3.347-2.995
			c-0.145-0.129-0.365-0.116-0.494,0.028s-0.116,0.363,0.028,0.494l3.093,2.765l-3.081,2.886c-0.14,0.131-0.147,0.353-0.015,0.492
			c0.07,0.073,0.163,0.111,0.256,0.111c0.085,0,0.17-0.031,0.238-0.094l3.127-2.926l0.849,0.76c0.067,0.059,0.15,0.088,0.233,0.088
			s0.168-0.032,0.233-0.092l0.871-0.78l3.109,2.952c0.067,0.063,0.155,0.098,0.24,0.098c0.093,0,0.184-0.037,0.253-0.109
			c0.132-0.14,0.127-0.36-0.013-0.494L91.914,333.022z"/>
	</g>
</g>
<g>
	
		<line fill="none" stroke="#99CCCC" stroke-width="0.75" stroke-linecap="round" stroke-linejoin="round" stroke-miterlimit="10" x1="123.138" y1="42.404" x2="133.814" y2="53.167"/>
	
		<line fill="none" stroke="#99CCCC" stroke-width="0.75" stroke-linecap="round" stroke-linejoin="round" stroke-miterlimit="10" x1="123.138" y1="42.404" x2="133.125" y2="42.445"/>
	
		<line fill="none" stroke="#99CCCC" stroke-width="0.75" stroke-linecap="round" stroke-linejoin="round" stroke-miterlimit="10" x1="123.138" y1="42.404" x2="123.099" y2="52.389"/>
</g>
<rect x="121.042" y="54.651" fill="none" width="6.845" height="6.845"/>
<text transform="matrix(1 0 0 1 121.8652 59.0732)" fill="#99CCCC" font-family="'ArialMT'" font-size="8">x</text>
<rect x="134.998" y="39.25" fill="none" width="4.867" height="6.309"/>
<rect x="136.444" y="54.651" fill="none" width="5.134" height="8.557"/>
<text transform="matrix(1 0 0 1 133.998 59.0419)" fill="#99CCCC" font-family="'ArialMT'" font-size="8">z</text>
<rect x="136.444" y="40.961" fill="none" width="4.869" height="6.309"/>
<text transform="matrix(1 0 0 1 134.7188 46.163)" fill="#99CCCC" font-family="'ArialMT'" font-size="8">y</text>
<path display="none" fill="#050606" stroke="#000000" stroke-width="0.25" stroke-miterlimit="10" d="M135.87,88.858
	c-0.706-2.647-2.261-3.572-3.345-3.894v-0.457c0-0.639-0.521-1.159-1.159-1.159c-0.638,0-1.159,0.521-1.159,1.159v0.456
	c-1.084,0.322-2.638,1.247-3.345,3.895c-1.052,3.946-0.724,7.242-3.029,7.528v1.448h7.533h7.533v-1.448
	C136.593,96.1,136.922,92.804,135.87,88.858z M130.787,84.507c0-0.319,0.26-0.579,0.58-0.579c0.32,0,0.58,0.26,0.58,0.579v0.327
	c-0.226-0.033-0.4-0.04-0.496-0.04c-0.054,0-0.083,0.003-0.083,0.003s-0.029-0.003-0.083-0.003c-0.096,0-0.27,0.006-0.496,0.04
	v-0.327H130.787z M138.32,97.255h-6.954h-6.953v-0.404c1.628-0.521,1.971-2.482,2.362-4.72c0.166-0.947,0.353-2.02,0.648-3.125
	c0.921-3.456,3.377-3.631,3.86-3.631c0.026,0,0.043,0,0.046,0l0.037,0.002l0.035-0.002c0.006,0,0.022,0,0.049,0
	c0.483,0,2.938,0.175,3.86,3.631c0.295,1.106,0.482,2.179,0.647,3.125c0.393,2.238,0.734,4.198,2.363,4.72V97.255L138.32,97.255z"/>
<g>
	<g>
		<path fill="none" stroke="#99CCCC" stroke-width="0.75" stroke-miterlimit="10" d="M48.695,213.611
			c-0.303-0.046-0.309-0.815-0.309-0.815s0.891-0.82,1.086-1.922c0.526,0,0.851-1.168,0.326-1.581
			c0.024-0.432,0.674-3.398-2.625-3.398c-3.303,0-2.654,2.966-2.629,3.398c-0.523,0.413-0.2,1.581,0.324,1.581
			c0.196,1.102,1.093,1.922,1.093,1.922s-0.012,0.771-0.315,0.815c-0.979,0.146-4.638,1.638-4.638,3.273h6.167h6.163
			C53.336,215.249,49.675,213.757,48.695,213.611z"/>
	</g>
	<g>
		<path fill="none" stroke="#99CCCC" stroke-width="0.75" stroke-miterlimit="10" d="M52.934,213.391
			c0.273-0.04,0.278-0.736,0.278-0.736s-0.801-0.738-0.977-1.73c-0.474,0-0.765-1.051-0.293-1.424
			c-0.022-0.388-0.606-3.057,2.363-3.057c2.973,0,2.387,2.669,2.367,3.057c0.472,0.373,0.18,1.424-0.292,1.424
			c-0.175,0.992-0.981,1.73-0.981,1.73s0.01,0.694,0.283,0.736c0.88,0.128,4.174,1.473,4.174,2.944h-5.55"/>
	</g>
</g>
<path fill="#99CCCC" d="M133.492,250.798v7.035l-3.528,2.238v-9.273l-5.882-7.453h15.292L133.492,250.798z M130.846,250.297v7.905
	c0.588-0.322,1.176-0.646,1.765-0.969v-6.937l4.705-5.983h-11.175L130.846,250.297z"/>
<polygon fill="none" stroke="#99CCCC" stroke-miterlimit="10" points="129.151,283.76 133.903,283.76 130.854,290.791 
	133.833,290.791 127.965,299.345 129.151,292.436 126.531,292.436 "/>
<path fill="#99CCCC" stroke="#99CCCC" stroke-width="0.5" stroke-miterlimit="10" d="M139.5,331.319h-0.645
	c-0.282-1.674-1.731-2.957-3.476-2.957c-1.722,0-3.164,1.218-3.498,2.834c-0.287-0.241-0.615-0.369-0.96-0.369
	c-0.345,0-0.673,0.128-0.96,0.369c-0.33-1.616-1.754-2.834-3.457-2.834c-1.869,0-3.404,1.435-3.556,3.254h-0.607
	c-0.163,0-0.295,0.133-0.295,0.296s0.132,0.296,0.295,0.296h0.607c0.152,1.818,1.688,3.255,3.556,3.255
	c1.914,0,3.472-1.541,3.523-3.453c0.252-0.38,0.567-0.591,0.893-0.591c0.326,0,0.64,0.21,0.892,0.591
	c0.053,1.912,1.631,3.453,3.566,3.453c1.946,0,3.529-1.594,3.529-3.551h0.592c0.163,0,0.296-0.134,0.296-0.296
	C139.796,331.454,139.663,331.319,139.5,331.319z M126.504,334.871c-1.643,0-2.979-1.327-2.979-2.959
	c0-1.63,1.336-2.958,2.979-2.958c1.647,0,2.938,1.3,2.938,2.958C129.442,333.569,128.152,334.871,126.504,334.871z M135.379,334.871
	c-1.643,0-2.979-1.327-2.979-2.959c0-1.63,1.336-2.958,2.979-2.958c1.647,0,2.938,1.3,2.938,2.958
	C138.317,333.569,137.027,334.871,135.379,334.871z"/>
<g>
	<circle fill="none" stroke="#99CCCC" stroke-miterlimit="10" cx="131.368" cy="9.649" r="7.508"/>
	<g>
		<path fill="#99CCCC" d="M131.368,12.293c-0.196,0-0.367-0.171-0.367-0.367c0-1.298,0.686-2.327,1.249-3.159
			c0.392-0.588,0.735-1.077,0.735-1.494c0-0.931-0.759-1.665-1.665-1.665c-0.71,0-1.347,0.465-1.591,1.126
			c-0.074,0.196-0.27,0.293-0.465,0.22c-0.196-0.074-0.294-0.27-0.22-0.465c0.343-0.979,1.248-1.64,2.277-1.64
			c1.322,0,2.399,1.077,2.399,2.399c0,0.636-0.392,1.224-0.857,1.91c-0.539,0.783-1.126,1.69-1.126,2.767
			C131.735,12.122,131.564,12.293,131.368,12.293z"/>
		<circle fill="#99CCCC" cx="131.368" cy="13.836" r="0.612"/>
	</g>
</g>
<polyline fill="none" stroke="#99CCCC" stroke-width="0.75" stroke-miterlimit="10" points="88.211,139.417 81.79,139.417 
	81.79,122.331 95.682,122.331 95.682,127.792 "/>
<path fill="none" stroke="#000000" stroke-width="0.8528" stroke-linecap="round" stroke-miterlimit="10" d="M164.924,7.572
	l6.06,6.816c0.08,0.165,0.249,0.271,0.435,0.271c0.185,0,0.354-0.106,0.437-0.271l6.059-6.816"/>
<path fill="none" stroke="#99CCCC" stroke-width="0.8528" stroke-linecap="round" stroke-miterlimit="10" d="M164.924,46.553
	l6.06,6.816c0.08,0.165,0.249,0.271,0.435,0.271c0.185,0,0.354-0.106,0.437-0.271l6.059-6.816"/>
<rect x="83.445" y="125.063" fill="#99CCCC" width="10.524" height="0.645"/>
<rect x="83.474" y="128.697" fill="#99CCCC" width="5.262" height="0.645"/>
<rect x="83.474" y="132.331" fill="#99CCCC" width="5.262" height="0.645"/>
<rect x="83.474" y="135.966" fill="#99CCCC" width="5.262" height="0.645"/>
<rect x="92.104" y="131.337" fill="#99CCCC" width="5.262" height="0.645"/>
<rect x="92.104" y="133.971" fill="#99CCCC" width="5.262" height="0.645"/>
<g>
	<g>
		<path fill="none" stroke="#000000" stroke-width="0.75" stroke-miterlimit="10" d="M129.056,213.061
			c-0.303-0.046-0.309-0.815-0.309-0.815s0.891-0.82,1.086-1.922c0.526,0,0.851-1.168,0.326-1.581
			c0.024-0.432,0.674-3.398-2.625-3.398c-3.303,0-2.654,2.966-2.629,3.398c-0.523,0.413-0.2,1.581,0.324,1.581
			c0.196,1.102,1.093,1.922,1.093,1.922s-0.012,0.771-0.315,0.815c-0.979,0.146-4.638,1.638-4.638,3.273h6.167h6.163
			C133.697,214.699,130.036,213.207,129.056,213.061z"/>
	</g>
	<g>
		<path fill="none" stroke="#000000" stroke-width="0.75" stroke-miterlimit="10" d="M133.294,212.841
			c0.273-0.04,0.278-0.736,0.278-0.736s-0.801-0.737-0.977-1.73c-0.474,0-0.765-1.051-0.293-1.424
			c-0.022-0.388-0.606-3.057,2.363-3.057c2.973,0,2.387,2.669,2.367,3.057c0.472,0.373,0.18,1.424-0.292,1.424
			c-0.175,0.993-0.981,1.73-0.981,1.73s0.01,0.694,0.283,0.736c0.88,0.128,4.174,1.473,4.174,2.944h-5.55"/>
	</g>
</g>
<path fill="#FFFFFF" stroke="#FFFFFF" stroke-width="0.25" stroke-miterlimit="10" d="M139.439,129.52h-9.612
	c-0.124,0-0.226,0.104-0.226,0.229v7.855c0,0.126,0.102,0.228,0.226,0.228h0.88v1.746c0,0.096,0.058,0.179,0.139,0.211
	c0.026,0.014,0.056,0.018,0.089,0.018c0.062,0,0.123-0.027,0.168-0.076l1.666-1.896h6.667c0.125,0,0.225-0.101,0.225-0.23v-7.855
	C139.665,129.622,139.564,129.52,139.439,129.52z M130.938,137.379h-0.88v-7.403h9.154v7.403h-6.539
	c-0.065,0-0.127,0.027-0.169,0.077l-1.34,1.522v-1.375C131.163,137.481,131.062,137.379,130.938,137.379z"/>
<polyline fill="none" stroke="#FFFFFF" stroke-width="0.75" stroke-miterlimit="10" points="128.358,139.806 121.937,139.806 
	121.937,122.719 135.83,122.719 135.83,128.18 "/>
<rect x="123.593" y="125.451" fill="#FFFFFF" width="10.524" height="0.645"/>
<rect x="123.621" y="129.085" fill="#FFFFFF" width="5.262" height="0.645"/>
<rect x="123.621" y="132.72" fill="#FFFFFF" width="5.262" height="0.645"/>
<rect x="123.621" y="136.354" fill="#FFFFFF" width="5.262" height="0.645"/>
<rect x="132.252" y="131.725" fill="#FFFFFF" width="5.262" height="0.645"/>
<rect x="132.252" y="134.359" fill="#FFFFFF" width="5.262" height="0.645"/>
<path stroke="#000000" stroke-width="0.25" stroke-miterlimit="10" d="M140.005,169.508h-9.612c-0.124,0-0.226,0.104-0.226,0.229
	v7.855c0,0.126,0.102,0.228,0.226,0.228h0.88v1.746c0,0.096,0.058,0.179,0.139,0.211c0.026,0.014,0.056,0.018,0.089,0.018
	c0.062,0,0.123-0.027,0.168-0.076l1.666-1.896h6.667c0.125,0,0.225-0.101,0.225-0.23v-7.855
	C140.23,169.609,140.13,169.508,140.005,169.508z M131.503,177.367h-0.88v-7.403h9.154v7.403h-6.539
	c-0.065,0-0.127,0.027-0.169,0.077l-1.34,1.522v-1.375C131.728,177.468,131.627,177.367,131.503,177.367z"/>
<polyline fill="none" stroke="#000000" stroke-width="0.75" stroke-miterlimit="10" points="128.924,179.793 122.502,179.793 
	122.502,162.706 136.395,162.706 136.395,168.167 "/>
<rect x="124.158" y="165.438" width="10.524" height="0.645"/>
<rect x="124.187" y="169.073" width="5.262" height="0.645"/>
<rect x="124.187" y="172.707" width="5.262" height="0.645"/>
<rect x="124.187" y="176.341" width="5.262" height="0.645"/>
<rect x="132.817" y="171.712" width="5.262" height="0.645"/>
<rect x="132.817" y="174.347" width="5.262" height="0.645"/>
</svg>
