<?xml version="1.0" encoding="utf-8"?>
<!-- Generator: Adobe Illustrator 16.0.0, SVG Export Plug-In . SVG Version: 6.00 Build 0)  -->
<!DOCTYPE svg PUBLIC "-//W3C//DTD SVG 1.1//EN" "http://www.w3.org/Graphics/SVG/1.1/DTD/svg11.dtd">
<svg version="1.1" id="Layer_1" xmlns="http://www.w3.org/2000/svg" xmlns:xlink="http://www.w3.org/1999/xlink" x="0px" y="0px"
	 width="15px" height="15px" viewBox="2.5 2.5 15 15" enable-background="new 2.5 2.5 15 15" xml:space="preserve">
<rect x="-384.623" y="-503.234" display="none" fill="#76CEF4" width="1226.684" height="785.96"/>
<g>
	<path d="M2.5,10c0,4.136,3.364,7.5,7.5,7.5s7.5-3.364,7.5-7.5S14.136,2.5,10,2.5S2.5,5.864,2.5,10z M3.407,10
		c0-3.635,2.958-6.593,6.593-6.593S16.593,6.365,16.593,10S13.635,16.593,10,16.593S3.407,13.635,3.407,10z M11.089,8.48
		l0.335,0.334l0.313,0.313l-3.322,3.321l-0.931,0.306l0.284-0.952L11.089,8.48z M12.243,7.332l0.641,0.643l-0.657,0.657
		l-0.642-0.642L12.243,7.332z"/>
</g>
</svg>
