<?xml version="1.0" encoding="utf-8"?>
<!-- Generator: Adobe Illustrator 16.0.0, SVG Export Plug-In . SVG Version: 6.00 Build 0)  -->
<!DOCTYPE svg PUBLIC "-//W3C//DTD SVG 1.1//EN" "http://www.w3.org/Graphics/SVG/1.1/DTD/svg11.dtd">
<svg version="1.1" id="Layer_1" xmlns="http://www.w3.org/2000/svg" xmlns:xlink="http://www.w3.org/1999/xlink" x="0px" y="0px"
	 width="15px" height="15px" viewBox="0 0 15 15" enable-background="new 0 0 15 15" xml:space="preserve">
<g>
	<path fill="#3268B2" d="M0.354,7.5c0,3.94,3.205,7.146,7.146,7.146s7.146-3.205,7.146-7.146S11.44,0.354,7.5,0.354
		S0.354,3.56,0.354,7.5z M1.219,7.5c0-3.462,2.818-6.281,6.281-6.281c3.463,0,6.282,2.818,6.282,6.281
		c0,3.463-2.819,6.282-6.282,6.282C4.038,13.782,1.219,10.963,1.219,7.5z M8.537,6.053l0.318,0.318l0.299,0.297L5.99,9.833
		l-0.887,0.29l0.27-0.906L8.537,6.053z M9.636,4.958l0.612,0.611L9.621,6.196l-0.61-0.612L9.636,4.958z"/>
</g>
</svg>
