<?xml version="1.0" encoding="utf-8"?>
<!-- Generator: Adobe Illustrator 16.0.0, SVG Export Plug-In . SVG Version: 6.00 Build 0)  -->
<!DOCTYPE svg PUBLIC "-//W3C//DTD SVG 1.1//EN" "http://www.w3.org/Graphics/SVG/1.1/DTD/svg11.dtd">
<svg version="1.1" id="Layer_1" xmlns="http://www.w3.org/2000/svg" xmlns:xlink="http://www.w3.org/1999/xlink" x="0px" y="0px"
	 width="15px" height="15px" viewBox="0 0 15 15" enable-background="new 0 0 15 15" xml:space="preserve">
<rect x="-1158.189" y="-276.985" display="none" fill="#76CEF4" width="1226.684" height="785.96"/>
<g>
	<g>
		<path fill="#6F6F6F" d="M14.961,7.309l-0.107-0.162l-1.999-2c-0.195-0.194-0.514-0.194-0.707,0c-0.195,0.195-0.195,0.513,0,0.707
			L13.293,7H8V1.707l1.146,1.146c0.193,0.194,0.512,0.194,0.707,0c0.193-0.195,0.193-0.513,0-0.707l-2-2L7.848,0.143L7.691,0.039
			L7.5,0H7.498L7.309,0.039L7.152,0.143L7.146,0.146l-2,2c-0.195,0.194-0.195,0.512,0,0.707c0.194,0.194,0.512,0.194,0.707,0
			L7,1.707V7H1.707l1.146-1.146c0.194-0.194,0.194-0.512,0-0.707c-0.195-0.194-0.513-0.194-0.707,0l-2,2L0.143,7.152L0.039,7.309
			L0,7.5v0.002l0.039,0.189l0.104,0.156l0.004,0.006l2,2c0.194,0.194,0.512,0.194,0.707,0c0.194-0.194,0.194-0.513,0-0.707L1.707,8
			H7v5.293l-1.146-1.146c-0.194-0.194-0.512-0.194-0.707,0c-0.194,0.194-0.194,0.513,0,0.707l2,1.999l0.162,0.108L7.498,15H7.5
			l0.191-0.039l0.162-0.107l2-2c0.193-0.194,0.193-0.513,0-0.707c-0.195-0.194-0.514-0.194-0.707,0L8,13.293V8h5.293l-1.146,1.146
			c-0.194,0.193-0.194,0.512,0,0.707c0.194,0.193,0.513,0.193,0.707,0l2-2l0.107-0.162L15,7.502V7.5L14.961,7.309z"/>
	</g>
</g>
</svg>
