<?xml version="1.0" encoding="utf-8"?>
<!-- Generator: Adobe Illustrator 16.0.0, SVG Export Plug-In . SVG Version: 6.00 Build 0)  -->
<!DOCTYPE svg PUBLIC "-//W3C//DTD SVG 1.1//EN" "http://www.w3.org/Graphics/SVG/1.1/DTD/svg11.dtd">
<svg version="1.1" id="Layer_1" xmlns="http://www.w3.org/2000/svg" xmlns:xlink="http://www.w3.org/1999/xlink" x="0px" y="0px"
	 width="16px" height="16px" viewBox="0 0 16 16" enable-background="new 0 0 16 16" xml:space="preserve">
<path fill="#1E201D" d="M9.717,3.69c-0.326-0.325-0.326-0.838,0-1.163c0.325-0.315,0.838-0.315,1.163,0l4.876,4.875
	C15.906,7.554,16,7.763,16,7.995s-0.094,0.442-0.244,0.594l-4.876,4.875c-0.325,0.326-0.838,0.326-1.163,0
	c-0.326-0.325-0.326-0.838,0-1.163l3.49-3.479H0.814C0.36,8.822,0,8.45,0,7.996s0.36-0.814,0.814-0.814h12.393L9.717,3.69z"/>
</svg>
