<?xml version="1.0" encoding="utf-8"?>
<!-- Generator: Adobe Illustrator 16.0.0, SVG Export Plug-In . SVG Version: 6.00 Build 0)  -->
<!DOCTYPE svg PUBLIC "-//W3C//DTD SVG 1.1//EN" "http://www.w3.org/Graphics/SVG/1.1/DTD/svg11.dtd">
<svg version="1.1" id="Layer_1" xmlns="http://www.w3.org/2000/svg" xmlns:xlink="http://www.w3.org/1999/xlink" x="0px" y="0px"
	 width="83px" height="79px" viewBox="0 0 83 79" enable-background="new 0 0 83 79" xml:space="preserve">
<g>
	<path fill="#FFFFFF" d="M41.426,50.534c6.888,0,12.49,5.603,12.49,12.491c0,6.887-5.603,12.488-12.49,12.488
		c-6.887,0-12.49-5.603-12.49-12.489C28.936,56.136,34.539,50.534,41.426,50.534 M41.426,49.498c-7.47,0-13.525,6.06-13.525,13.527
		S33.955,76.55,41.426,76.55c7.467,0,13.525-6.058,13.525-13.525S48.893,49.498,41.426,49.498L41.426,49.498z"/>
</g>
<g>
	<path fill="#FFFFFF" d="M23.132,26.57l-0.049-0.047c-0.573-0.561-1.334-0.866-2.139-0.866c-0.836,0-1.616,0.325-2.192,0.919
		l-5.067,5.136c-1.18,1.209-1.155,3.152,0.052,4.334l0.047,0.048c0.576,0.563,1.336,0.871,2.141,0.871
		c0.835,0,1.618-0.326,2.193-0.918l5.067-5.144C24.364,29.695,24.34,27.752,23.132,26.57z"/>
	<path fill="#FFFFFF" d="M29.354,31.153l-0.047-0.044c-0.575-0.563-1.333-0.869-2.14-0.869c-0.842,0-1.617,0.326-2.197,0.918
		l-5.063,5.141c-1.181,1.205-1.156,3.151,0.052,4.331l0.048,0.051c0.573,0.557,1.333,0.869,2.138,0.869
		c0.837,0,1.617-0.323,2.193-0.92l5.066-5.14C30.586,34.281,30.562,32.339,29.354,31.153z"/>
	<path fill="#FFFFFF" d="M35.979,35.198l-0.051-0.052c-0.571-0.56-1.333-0.867-2.141-0.867c-0.835,0-1.613,0.325-2.193,0.918
		l-5.063,5.141c-1.185,1.21-1.16,3.15,0.05,4.33l0.046,0.052c0.575,0.555,1.333,0.87,2.146,0.87c0.835,0,1.61-0.326,2.193-0.922
		l5.062-5.141C37.207,38.319,37.184,36.377,35.979,35.198z"/>
	<path fill="#FFFFFF" d="M42.195,39.601l-0.046-0.053c-0.575-0.559-1.333-0.866-2.139-0.866c-0.835,0-1.61,0.324-2.193,0.919
		l-5.067,5.139c-1.178,1.208-1.155,3.152,0.054,4.334l0.046,0.05c0.576,0.561,1.333,0.872,2.146,0.872
		c0.83,0,1.613-0.326,2.193-0.922l5.062-5.139C43.429,42.724,43.405,40.778,42.195,39.601z"/>
	<path fill="#FFFFFF" d="M47.644,17.237c-5.363,5.076-9.519,6.972-9.696,7.051l-0.035,0.014c-0.795,0.253-1.749,0.387-2.751,0.387
		c-1.273,0-2.329-0.209-2.839-0.391c-1.042-0.362-2.815-2.074-3.579-3.452c-0.791-1.417-0.102-3.564-0.071-3.653l0.022-0.079
		l11.77-11.107c-0.563-0.563-1.677-0.845-3.331-0.845c-4.492,0-11.302,2.172-11.679,2.295c-0.51,0.228-1.256,0.345-2.212,0.345
		c-1.701,0-3.552-0.36-3.846-0.418h-0.006c-1.002,0-3.615-1.571-4.034-1.828c-0.428-0.15-0.837-0.227-1.205-0.227
		c-1.008,0-1.481,0.558-1.571,0.677L6.909,18.951c-1.783,3.353-1.914,4.326-1.897,4.577c3.111,0.756,7.242,5.23,8.267,6.387
		l5.909-5.771l0.097-0.021c0.503-0.103,0.982-0.159,1.439-0.159c3.635,0,4.647,3.352,4.879,4.419
		c0.296-0.029,0.585-0.044,0.864-0.044c4.301,0,5.198,3.438,5.375,4.615c0.597-0.121,1.167-0.18,1.694-0.18
		c3.943,0,4.849,3.307,5.045,4.42c2.074-0.311,3.669,0.133,4.735,1.31c1.703,1.869,1.436,4.895,1.423,5.021l-0.007,0.112
		l-5.851,5.942c0.821,0.438,1.596,0.653,2.318,0.653c2.893,0,4.147-3.562,4.165-3.597l0.089-0.268l0.279,0.049
		c0.481,0.089,0.945,0.134,1.372,0.134c3.902,0,4.105-3.692,4.111-3.847l0.016-0.409l0.398,0.102
		c0.782,0.201,1.519,0.308,2.182,0.308c4.064,0,4.476-3.838,4.494-3.995l0.028-0.361l0.354,0.064
		c0.605,0.112,1.168,0.171,1.678,0.171c1.361,0,2.381-0.409,3.034-1.205c1.257-1.535,0.808-4.056,0.779-4.202
		C63.113,28.936,49.554,18.664,47.644,17.237z"/>
	<path fill="#FFFFFF" d="M70.563,7.039l-0.009-0.04c-0.328-1.615-1.319-1.856-1.878-1.856c-0.06,0-0.106,0.005-0.14,0.005
		c-2.989,2.331-6.252,2.681-7.938,2.681c-0.647,0-1.049-0.051-1.113-0.06c-2.988-0.291-6.679-1.562-6.834-1.615L52.608,6.14
		c-2.274-1.117-4.225-1.679-5.796-1.679c-1.581,0-2.18,0.593-2.186,0.598c-6.752,7.239-13.046,12.03-13.762,12.568
		c-1.144,2.528,1.836,4.608,2.226,4.865c0.82,0.198,1.578,0.295,2.271,0.295c1.144,0,1.701-0.277,1.707-0.281l0.076-0.037h0.113
		c1.761,0,8.107-5.297,10.401-7.341l0.166-0.143l0.201,0.094c7.646,3.753,17.321,14.998,17.87,15.639
		c0.535,0.407,1.03,0.613,1.476,0.613c0.524,0,0.796-0.285,0.799-0.295l0.037-0.03l7.817-6.528l0.053-0.022
		c0.865-0.319,1.422-0.763,1.648-1.316c0.255-0.627-0.012-1.209-0.012-1.216L70.563,7.039z"/>
</g>
<g>
	<path fill="#FFFFFF" d="M38.776,68.417L38.776,68.417c-0.306,0-0.578-0.106-0.777-0.342l-3.412-3.409
		c-0.439-0.438-0.439-1.147,0-1.588c0.438-0.439,1.146-0.439,1.587,0l2.635,2.634l7.631-7.63c0.441-0.44,1.148-0.44,1.588,0
		c0.439,0.436,0.439,1.149,0,1.587l-8.443,8.406C39.382,68.28,39.077,68.417,38.776,68.417z"/>
</g>
</svg>
