<?xml version="1.0" encoding="utf-8"?>
<!-- Generator: Adobe Illustrator 16.0.0, SVG Export Plug-In . SVG Version: 6.00 Build 0)  -->
<!DOCTYPE svg PUBLIC "-//W3C//DTD SVG 1.1//EN" "http://www.w3.org/Graphics/SVG/1.1/DTD/svg11.dtd">
<svg version="1.1" id="Layer_1" xmlns="http://www.w3.org/2000/svg" xmlns:xlink="http://www.w3.org/1999/xlink" x="0px" y="0px"
	 width="83px" height="79px" viewBox="44.833 65.389 83 79" enable-background="new 44.833 65.389 83 79" xml:space="preserve">
<g>
	<path fill="#020202" d="M86.336,115.669c7.339,0,13.309,5.97,13.309,13.311c0,7.338-5.97,13.305-13.309,13.305
		c-7.338,0-13.308-5.969-13.308-13.307C73.028,121.639,78.998,115.669,86.336,115.669 M86.336,114.566
		c-7.959,0-14.412,6.457-14.412,14.414s6.452,14.409,14.412,14.409c7.955,0,14.412-6.454,14.412-14.411
		S94.291,114.566,86.336,114.566L86.336,114.566z"/>
</g>
<g>
	<path fill="#020202" d="M66.843,90.136l-0.052-0.051c-0.61-0.598-1.422-0.922-2.279-0.922c-0.892,0-1.723,0.346-2.336,0.979
		l-5.399,5.473c-1.257,1.288-1.23,3.358,0.055,4.618l0.05,0.05c0.613,0.6,1.424,0.929,2.281,0.929c0.89,0,1.724-0.348,2.337-0.979
		l5.398-5.481C68.157,93.465,68.13,91.394,66.843,90.136z"/>
	<path fill="#020202" d="M73.473,95.018l-0.049-0.047c-0.613-0.599-1.421-0.926-2.281-0.926c-0.897,0-1.722,0.347-2.341,0.979
		l-5.394,5.478c-1.258,1.284-1.232,3.356,0.056,4.615l0.051,0.054c0.611,0.592,1.421,0.926,2.279,0.926
		c0.892,0,1.722-0.345,2.336-0.979l5.399-5.477C74.786,98.351,74.76,96.281,73.473,95.018z"/>
	<path fill="#020202" d="M80.532,99.327l-0.055-0.055c-0.608-0.597-1.42-0.923-2.281-0.923c-0.889,0-1.718,0.346-2.336,0.978
		l-5.394,5.479c-1.263,1.289-1.236,3.356,0.053,4.613l0.05,0.056c0.612,0.592,1.42,0.927,2.285,0.927
		c0.89,0,1.715-0.346,2.337-0.982l5.393-5.478C81.84,102.653,81.816,100.585,80.532,99.327z"/>
	<path fill="#020202" d="M87.155,104.019l-0.049-0.056c-0.612-0.595-1.421-0.923-2.279-0.923c-0.89,0-1.716,0.345-2.337,0.979
		l-5.399,5.476c-1.255,1.287-1.23,3.359,0.058,4.618l0.05,0.054c0.614,0.597,1.42,0.93,2.286,0.93c0.884,0,1.719-0.348,2.337-0.983
		l5.393-5.476C88.47,107.348,88.445,105.274,87.155,104.019z"/>
	<path fill="#020202" d="M92.961,80.191c-5.715,5.408-10.143,7.428-10.332,7.513l-0.037,0.016c-0.847,0.27-1.863,0.411-2.931,0.411
		c-1.356,0-2.481-0.223-3.025-0.415c-1.111-0.387-3-2.21-3.813-3.678c-0.842-1.509-0.108-3.797-0.075-3.893l0.023-0.084
		l12.541-11.834c-0.6-0.6-1.787-0.9-3.549-0.9c-4.786,0-12.042,2.314-12.444,2.446c-0.544,0.243-1.339,0.367-2.358,0.367
		c-1.813,0-3.784-0.384-4.098-0.446h-0.006c-1.068,0-3.852-1.675-4.299-1.948c-0.456-0.16-0.892-0.241-1.283-0.241
		c-1.075,0-1.579,0.595-1.673,0.721l-6.043,13.792c-1.9,3.572-2.039,4.609-2.021,4.876c3.315,0.806,7.717,5.573,8.808,6.805
		l6.296-6.149l0.103-0.022c0.536-0.109,1.047-0.169,1.534-0.169c3.874,0,4.952,3.571,5.199,4.708
		c0.315-0.031,0.624-0.047,0.92-0.047c4.583,0,5.539,3.664,5.728,4.918c0.636-0.128,1.244-0.192,1.805-0.192
		c4.201,0,5.167,3.524,5.375,4.709c2.209-0.331,3.91,0.143,5.044,1.396c1.815,1.992,1.531,5.216,1.516,5.352l-0.006,0.119
		l-6.233,6.33c0.874,0.466,1.699,0.697,2.469,0.697c3.083,0,4.419-3.794,4.438-3.834l0.095-0.283l0.298,0.052
		c0.514,0.095,1.006,0.142,1.462,0.142c4.158,0,4.375-3.935,4.381-4.098l0.017-0.436l0.426,0.107
		c0.831,0.216,1.616,0.328,2.323,0.328c4.331,0,4.77-4.09,4.788-4.257l0.03-0.385l0.377,0.069c0.645,0.12,1.244,0.182,1.787,0.182
		c1.451,0,2.538-0.436,3.234-1.284c1.338-1.635,0.859-4.321,0.829-4.478C109.445,92.656,94.996,81.711,92.961,80.191z"/>
	<path fill="#020202" d="M117.38,69.324l-0.008-0.043c-0.35-1.721-1.406-1.978-2.001-1.978c-0.064,0-0.114,0.005-0.149,0.005
		c-3.186,2.483-6.661,2.856-8.457,2.856c-0.689,0-1.119-0.055-1.186-0.063c-3.184-0.31-7.116-1.665-7.283-1.721l-0.045-0.014
		c-2.422-1.19-4.502-1.79-6.176-1.79c-1.684,0-2.322,0.632-2.329,0.637c-7.195,7.712-13.901,12.817-14.664,13.391
		c-1.218,2.693,1.957,4.91,2.372,5.184c0.875,0.211,1.681,0.315,2.42,0.315c1.219,0,1.813-0.296,1.819-0.3l0.081-0.039h0.121
		c1.876,0,8.638-5.644,11.082-7.822l0.177-0.152l0.215,0.101c8.146,3.999,18.456,15.979,19.039,16.663
		c0.572,0.434,1.098,0.653,1.574,0.653c0.559,0,0.848-0.304,0.85-0.315l0.041-0.032l8.327-6.956l0.058-0.024
		c0.922-0.339,1.515-0.813,1.756-1.402c0.272-0.668-0.014-1.288-0.014-1.295L117.38,69.324z"/>
</g>
<g>
	<path fill="#020202" d="M83.513,134.725L83.513,134.725c-0.326,0-0.616-0.115-0.828-0.365l-3.634-3.632
		c-0.468-0.467-0.468-1.223,0-1.693c0.466-0.467,1.221-0.467,1.69,0l2.808,2.809l8.132-8.131c0.47-0.47,1.223-0.47,1.69,0
		c0.47,0.464,0.47,1.225,0,1.689l-8.996,8.958C84.158,134.577,83.833,134.725,83.513,134.725z"/>
</g>
</svg>
