<?xml version="1.0" encoding="utf-8"?>
<!-- Generator: Adobe Illustrator 16.0.0, SVG Export Plug-In . SVG Version: 6.00 Build 0)  -->
<!DOCTYPE svg PUBLIC "-//W3C//DTD SVG 1.1//EN" "http://www.w3.org/Graphics/SVG/1.1/DTD/svg11.dtd">
<svg version="1.1" id="Layer_1" xmlns="http://www.w3.org/2000/svg" xmlns:xlink="http://www.w3.org/1999/xlink" x="0px" y="0px"
	 width="83px" height="79px" viewBox="0 0 83 79" enable-background="new 0 0 83 79" xml:space="preserve">
<g>
	<path fill="#FFFFFF" d="M65.096,52.645c6.688,0,12.129,5.355,12.129,11.939s-5.439,11.941-12.129,11.941
		c-6.688,0-12.128-5.357-12.128-11.941S58.411,52.645,65.096,52.645 M65.096,51.6c-7.283,0-13.188,5.813-13.188,12.984
		c0,7.174,5.903,12.986,13.188,12.986c7.282,0,13.189-5.813,13.189-12.986C78.285,57.412,72.38,51.6,65.096,51.6L65.096,51.6z"/>
</g>
<g>
	<polygon fill="#FFFFFF" points="52.588,7.19 52.588,1.43 23.335,1.43 23.335,7.19 23.335,12.779 52.588,12.779 	"/>
	<path fill="#FFFFFF" d="M52.323,66.645h-20.21c-0.805,0-1.494-0.623-1.494-1.471c0-0.849,0.63-1.467,1.494-1.467h20.201
		c0.549-5.594,4.285-10.816,11.229-11.443V7.795h-8.025v8.471H20.409V7.795h-8.028v65.399h43.208
		C54.211,71.289,52.564,69,52.323,66.645z M32.113,26.037h23.631c0.801,0,1.488,0.62,1.488,1.464c0,0.849-0.688,1.472-1.488,1.472
		H32.113c-0.805,0-1.494-0.625-1.494-1.472C30.619,26.657,31.249,26.037,32.113,26.037z M32.113,38.573h23.631
		c0.801,0,1.488,0.621,1.488,1.465c-0.062,0.851-0.688,1.472-1.488,1.472H32.113c-0.805,0-1.494-0.621-1.494-1.472
		C30.619,39.253,31.249,38.573,32.113,38.573z M32.113,51.111h23.631c0.801,0,1.488,0.619,1.488,1.467
		c-0.062,0.852-0.688,1.469-1.488,1.469H32.113c-0.805,0-1.494-0.621-1.494-1.469C30.619,51.788,31.249,51.111,32.113,51.111z
		 M26.661,65.174H20.18v-6.382h6.481V65.174z M26.661,52.637H20.18v-6.383h6.481V52.637z M26.661,40.04H20.18v-6.323h6.481V40.04z
		 M26.661,27.503H20.18v-6.381h6.481V27.503z"/>
</g>
<g>
	<path fill="#FFFFFF" d="M60.664,64.4l-0.014-0.016c-0.139-0.134-0.324-0.205-0.519-0.205c-0.202,0-0.391,0.075-0.53,0.221
		l-1.229,1.226c-0.287,0.289-0.28,0.754,0.012,1.035l0.013,0.01c0.142,0.134,0.324,0.209,0.521,0.209
		c0.201,0,0.391-0.077,0.53-0.219l1.229-1.228C60.961,65.145,60.955,64.682,60.664,64.4z"/>
	<path fill="#FFFFFF" d="M62.172,65.493l-0.013-0.01c-0.14-0.136-0.323-0.212-0.519-0.212c-0.205,0-0.392,0.078-0.533,0.222
		l-1.227,1.228c-0.287,0.287-0.279,0.752,0.014,1.035l0.013,0.01c0.137,0.136,0.321,0.209,0.519,0.209
		c0.2,0,0.393-0.078,0.529-0.219l1.227-1.229C62.471,66.237,62.465,65.775,62.172,65.493z"/>
	<path fill="#FFFFFF" d="M63.775,66.458l-0.012-0.013c-0.14-0.135-0.324-0.208-0.521-0.208c-0.2,0-0.387,0.078-0.53,0.221
		l-1.228,1.228c-0.289,0.289-0.281,0.752,0.014,1.035l0.012,0.012c0.141,0.132,0.323,0.205,0.518,0.205
		c0.205,0,0.393-0.077,0.533-0.217l1.228-1.229C64.076,67.203,64.068,66.739,63.775,66.458z"/>
	<path fill="#FFFFFF" d="M65.284,67.508l-0.015-0.012c-0.138-0.136-0.324-0.206-0.517-0.206c-0.203,0-0.39,0.078-0.532,0.218
		l-1.228,1.229c-0.287,0.284-0.281,0.751,0.013,1.032l0.012,0.013c0.141,0.134,0.323,0.207,0.521,0.207
		c0.197,0,0.391-0.077,0.531-0.22l1.226-1.228C65.581,68.254,65.579,67.791,65.284,67.508z"/>
	<path fill="#FFFFFF" d="M66.602,62.17c-1.299,1.213-2.306,1.665-2.349,1.684l-0.009,0.002c-0.192,0.063-0.424,0.095-0.666,0.095
		c-0.309,0-0.564-0.05-0.688-0.095c-0.252-0.086-0.684-0.494-0.867-0.822c-0.193-0.339-0.023-0.85-0.019-0.874l0.007-0.019
		l2.852-2.649c-0.135-0.138-0.406-0.202-0.807-0.202c-1.09,0-2.74,0.518-2.832,0.548c-0.123,0.052-0.305,0.081-0.535,0.081
		c-0.414,0-0.86-0.086-0.933-0.1h-0.002c-0.241,0-0.877-0.374-0.978-0.438c-0.104-0.035-0.202-0.055-0.291-0.055
		c-0.246,0-0.36,0.133-0.381,0.161l-1.377,3.092c-0.433,0.797-0.463,1.028-0.459,1.089c0.754,0.184,1.756,1.249,2.004,1.524
		l1.432-1.376l0.023-0.006c0.121-0.021,0.236-0.037,0.35-0.037c0.88,0,1.127,0.799,1.184,1.054c0.07-0.005,0.141-0.009,0.209-0.009
		c1.041,0,1.26,0.82,1.305,1.101c0.143-0.026,0.281-0.041,0.41-0.041c0.955,0,1.174,0.79,1.222,1.054
		c0.503-0.072,0.89,0.033,1.147,0.313c0.412,0.445,0.35,1.168,0.346,1.198l-0.002,0.023l-1.418,1.42
		c0.199,0.104,0.388,0.155,0.562,0.155c0.7,0,1.005-0.853,1.009-0.858l0.023-0.064l0.068,0.012c0.114,0.022,0.228,0.032,0.33,0.032
		c0.947,0,0.995-0.884,0.998-0.918l0.004-0.101l0.096,0.025c0.188,0.047,0.367,0.071,0.529,0.071c0.985,0,1.084-0.916,1.088-0.953
		l0.008-0.087l0.088,0.018c0.146,0.024,0.281,0.043,0.404,0.043c0.332,0,0.578-0.103,0.735-0.287
		c0.306-0.371,0.196-0.971,0.188-1.004C70.354,64.963,67.066,62.51,66.602,62.17z"/>
	<path fill="#FFFFFF" d="M72.162,59.738l-0.003-0.014c-0.08-0.383-0.321-0.44-0.458-0.44c-0.016,0-0.024,0-0.032,0
		c-0.726,0.554-1.519,0.642-1.926,0.642c-0.154,0-0.253-0.015-0.271-0.018c-0.723-0.07-1.617-0.373-1.656-0.383l-0.008-0.004
		c-0.555-0.271-1.026-0.403-1.406-0.403c-0.383,0-0.527,0.146-0.53,0.146c-1.638,1.729-3.161,2.871-3.337,3
		c-0.278,0.602,0.445,1.1,0.54,1.157c0.198,0.05,0.384,0.069,0.554,0.069c0.275,0,0.41-0.066,0.412-0.066l0.021-0.01h0.026
		c0.425,0,1.964-1.264,2.521-1.751l0.041-0.034l0.049,0.022c1.854,0.895,4.199,3.58,4.333,3.729
		c0.129,0.103,0.249,0.149,0.356,0.149c0.125,0,0.192-0.069,0.192-0.071l0.008-0.006l1.896-1.561l0.014-0.004
		c0.21-0.078,0.344-0.185,0.4-0.314c0.062-0.152-0.006-0.29-0.006-0.29L72.162,59.738z"/>
</g>
</svg>
