<?xml version="1.0" encoding="utf-8"?>
<!-- Generator: Adobe Illustrator 16.0.0, SVG Export Plug-In . SVG Version: 6.00 Build 0)  -->
<!DOCTYPE svg PUBLIC "-//W3C//DTD SVG 1.1//EN" "http://www.w3.org/Graphics/SVG/1.1/DTD/svg11.dtd">
<svg version="1.1" id="Layer_1" xmlns="http://www.w3.org/2000/svg" xmlns:xlink="http://www.w3.org/1999/xlink" x="0px" y="0px"
	 width="83px" height="79px" viewBox="44.833 65.389 83 79" enable-background="new 44.833 65.389 83 79" xml:space="preserve">
<g>
	<path fill="#020202" d="M109.096,118.36c6.688,0,12.129,5.355,12.129,11.939s-5.44,11.941-12.129,11.941
		c-6.688,0-12.128-5.357-12.128-11.941S102.411,118.36,109.096,118.36 M109.096,117.315c-7.283,0-13.189,5.813-13.189,12.984
		c0,7.173,5.904,12.986,13.189,12.986c7.282,0,13.189-5.813,13.189-12.986C122.285,123.127,116.38,117.315,109.096,117.315
		L109.096,117.315z"/>
</g>
<g>
	<polygon fill="#020202" points="96.588,72.905 96.588,67.144 67.335,67.144 67.335,72.905 67.335,78.494 96.588,78.494 	"/>
	<path fill="#020202" d="M96.323,132.359H76.114c-0.806,0-1.495-0.622-1.495-1.471c0-0.848,0.63-1.466,1.495-1.466h20.201
		c0.548-5.594,4.285-10.817,11.228-11.444V73.51h-8.025v8.47H64.409v-8.47h-8.028v65.399h43.208
		C98.211,137.004,96.565,134.715,96.323,132.359z M76.114,91.752h23.63c0.801,0,1.488,0.62,1.488,1.464
		c0,0.849-0.688,1.471-1.488,1.471h-23.63c-0.806,0-1.495-0.624-1.495-1.471C74.619,92.372,75.249,91.752,76.114,91.752z
		 M76.114,104.288h23.63c0.801,0,1.488,0.621,1.488,1.465c-0.061,0.851-0.688,1.472-1.488,1.472h-23.63
		c-0.806,0-1.495-0.621-1.495-1.472C74.619,104.968,75.249,104.288,76.114,104.288z M76.114,116.826h23.63
		c0.801,0,1.488,0.62,1.488,1.467c-0.061,0.851-0.688,1.469-1.488,1.469h-23.63c-0.806,0-1.495-0.621-1.495-1.469
		C74.619,117.503,75.249,116.826,76.114,116.826z M70.661,130.888H64.18v-6.381h6.481V130.888z M70.661,118.351H64.18v-6.382h6.481
		V118.351z M70.661,105.755H64.18v-6.324h6.481V105.755z M70.661,93.218H64.18v-6.381h6.481V93.218z"/>
</g>
<g>
	<path fill="#020202" d="M104.664,130.115l-0.013-0.016c-0.139-0.133-0.325-0.205-0.519-0.205c-0.203,0-0.391,0.076-0.53,0.221
		l-1.23,1.226c-0.287,0.289-0.28,0.754,0.012,1.035l0.013,0.01c0.141,0.133,0.323,0.209,0.521,0.209c0.201,0,0.391-0.078,0.53-0.219
		l1.229-1.228C104.961,130.859,104.955,130.397,104.664,130.115z"/>
	<path fill="#020202" d="M106.172,131.208l-0.013-0.01c-0.139-0.136-0.323-0.211-0.518-0.211c-0.205,0-0.392,0.078-0.533,0.221
		l-1.227,1.227c-0.287,0.287-0.279,0.752,0.013,1.036l0.013,0.01c0.137,0.135,0.321,0.208,0.519,0.208
		c0.2,0,0.392-0.078,0.529-0.218l1.227-1.229C106.471,131.952,106.465,131.49,106.172,131.208z"/>
	<path fill="#020202" d="M107.776,132.173l-0.013-0.013c-0.139-0.134-0.323-0.208-0.521-0.208c-0.2,0-0.387,0.078-0.53,0.221
		l-1.227,1.227c-0.289,0.289-0.282,0.752,0.013,1.036l0.012,0.011c0.14,0.132,0.323,0.205,0.518,0.205
		c0.204,0,0.392-0.077,0.533-0.216l1.227-1.23C108.076,132.918,108.069,132.454,107.776,132.173z"/>
	<path fill="#020202" d="M109.284,133.222l-0.015-0.011c-0.137-0.136-0.323-0.206-0.516-0.206c-0.203,0-0.39,0.078-0.533,0.217
		l-1.227,1.23c-0.287,0.285-0.281,0.751,0.013,1.032l0.011,0.013c0.141,0.134,0.324,0.207,0.522,0.207s0.39-0.077,0.531-0.22
		l1.226-1.227C109.581,133.969,109.579,133.506,109.284,133.222z"/>
	<path fill="#020202" d="M110.602,127.885c-1.299,1.212-2.306,1.665-2.349,1.683l-0.009,0.002c-0.192,0.064-0.423,0.095-0.666,0.095
		c-0.308,0-0.565-0.05-0.688-0.095c-0.252-0.086-0.683-0.494-0.866-0.822c-0.194-0.339-0.024-0.85-0.019-0.874l0.006-0.018
		l2.852-2.65c-0.135-0.137-0.406-0.202-0.806-0.202c-1.09,0-2.741,0.517-2.832,0.548c-0.123,0.052-0.305,0.081-0.535,0.081
		c-0.414,0-0.861-0.086-0.933-0.1h-0.002c-0.242,0-0.877-0.374-0.978-0.437c-0.104-0.035-0.202-0.055-0.291-0.055
		c-0.246,0-0.36,0.133-0.381,0.161l-1.376,3.092c-0.433,0.797-0.464,1.028-0.46,1.089c0.754,0.184,1.756,1.249,2.004,1.524
		l1.432-1.376l0.024-0.006c0.121-0.021,0.236-0.037,0.349-0.037c0.88,0,1.127,0.799,1.183,1.054c0.071-0.005,0.142-0.009,0.21-0.009
		c1.04,0,1.26,0.82,1.304,1.101c0.143-0.027,0.281-0.041,0.41-0.041c0.955,0,1.175,0.79,1.222,1.053
		c0.503-0.072,0.89,0.033,1.148,0.314c0.412,0.445,0.349,1.168,0.345,1.198l-0.002,0.024l-1.418,1.419
		c0.199,0.104,0.388,0.156,0.562,0.156c0.7,0,1.005-0.853,1.009-0.858l0.023-0.065l0.068,0.012c0.115,0.022,0.228,0.032,0.331,0.032
		c0.947,0,0.995-0.884,0.997-0.918l0.004-0.1l0.096,0.025c0.189,0.047,0.368,0.071,0.529,0.071c0.986,0,1.085-0.916,1.089-0.953
		l0.008-0.087l0.087,0.018c0.146,0.024,0.282,0.042,0.404,0.042c0.332,0,0.578-0.102,0.736-0.287
		c0.306-0.371,0.196-0.97,0.189-1.004C114.353,130.678,111.066,128.225,110.602,127.885z"/>
	<path fill="#020202" d="M116.162,125.453l-0.003-0.014c-0.08-0.383-0.321-0.44-0.458-0.44c-0.015,0-0.024,0-0.032,0
		c-0.726,0.554-1.518,0.641-1.926,0.641c-0.154,0-0.253-0.014-0.27-0.017c-0.723-0.07-1.618-0.373-1.657-0.383l-0.008-0.004
		c-0.554-0.27-1.026-0.403-1.405-0.403c-0.384,0-0.528,0.145-0.531,0.145c-1.637,1.729-3.161,2.872-3.337,3.001
		c-0.278,0.601,0.445,1.099,0.54,1.157c0.199,0.05,0.384,0.069,0.554,0.069c0.275,0,0.41-0.066,0.412-0.066l0.021-0.01h0.027
		c0.425,0,1.964-1.264,2.521-1.751l0.04-0.034l0.049,0.022c1.853,0.895,4.199,3.58,4.333,3.73c0.129,0.102,0.249,0.149,0.357,0.149
		c0.125,0,0.192-0.069,0.192-0.071l0.008-0.006l1.896-1.561l0.013-0.004c0.21-0.078,0.344-0.184,0.4-0.314
		c0.062-0.152-0.005-0.29-0.005-0.29L116.162,125.453z"/>
</g>
</svg>
