<?xml version="1.0" encoding="utf-8"?>
<!-- Generator: Adobe Illustrator 16.0.0, SVG Export Plug-In . SVG Version: 6.00 Build 0)  -->
<!DOCTYPE svg PUBLIC "-//W3C//DTD SVG 1.1//EN" "http://www.w3.org/Graphics/SVG/1.1/DTD/svg11.dtd">
<svg version="1.1" id="Layer_1" xmlns="http://www.w3.org/2000/svg" xmlns:xlink="http://www.w3.org/1999/xlink" x="0px" y="0px"
	 width="83px" height="79px" viewBox="0 0 83 79" enable-background="new 0 0 83 79" xml:space="preserve">
<path fill="#FFFFFF" d="M58.618,71.816c0,0-1.793-5.354-1.655-8.229c0.138-2.873,2.386-7.066,2.386-7.066
	c-4.563-2.342-10.316-4.652-12.447-4.992c-1.771-0.291-1.807-5.223-1.807-5.223s5.188-5.234,6.336-12.266
	c3.055,0,4.948-7.464,1.916-10.103c0.119-2.757,3.916-21.699-15.341-21.699c-19.274,0-15.479,18.942-15.338,21.699
	c-3.048,2.639-1.169,10.103,1.879,10.103c1.146,7.032,6.382,12.266,6.382,12.266s-0.068,4.932-1.861,5.223
	C23.379,52.445,2.034,61.975,2.034,72.422h35.973L58.618,71.816z"/>
<g>
	<path fill="#FFFFFF" d="M68.534,52.896c6.303,0,11.432,5.129,11.432,11.432c0,6.305-5.129,11.434-11.432,11.434
		s-11.434-5.129-11.434-11.434C57.102,58.025,62.229,52.896,68.534,52.896 M68.534,51.896c-6.866,0-12.434,5.566-12.434,12.432
		s5.564,12.434,12.434,12.434c6.863,0,12.432-5.566,12.432-12.434C80.966,57.463,75.397,51.896,68.534,51.896L68.534,51.896z"/>
</g>
<g>
	<path fill="#FFFFFF" d="M70.896,60.771h-4.693c-2.297,2.281-5.159,5.865-3.688,8.479c1.16,2.064,3.789,2.602,6.334,2.563
		c2.549-0.033,5.02-0.643,5.863-2.563C75.8,66.791,73.032,63.107,70.896,60.771z M69.067,69.355v0.938h-0.898v-0.871
		c-0.614-0.027-1.208-0.191-1.561-0.396l0.274-1.068c0.381,0.211,0.931,0.4,1.521,0.4c0.526,0,0.883-0.203,0.883-0.564
		c0-0.35-0.293-0.568-0.971-0.803c-0.979-0.324-1.649-0.781-1.649-1.676c0-0.805,0.567-1.438,1.548-1.629v-0.869h0.898v0.807
		c0.614,0.025,1.022,0.156,1.326,0.305l-0.264,1.031c-0.24-0.1-0.656-0.313-1.32-0.313c-0.594,0-0.785,0.258-0.785,0.516
		c0,0.303,0.318,0.492,1.097,0.785c1.09,0.387,1.528,0.891,1.528,1.715C70.694,68.477,70.118,69.174,69.067,69.355z"/>
	<path fill="#FFFFFF" d="M72.28,57.232c-0.641-0.391-1.434,1.02-2,0.996c-0.563-0.021-1.01-1.41-1.655-1.389
		c-0.647,0.02-0.903,1.287-1.421,1.402c-0.521,0.119-1.813-1.488-2.331-0.926c-0.416,0.457,0.868,2.287,1.372,2.967h0.457h3.742
		h0.429C71.401,59.566,72.812,57.553,72.28,57.232z"/>
</g>
</svg>
