<?xml version="1.0" encoding="utf-8"?>
<!-- Generator: Adobe Illustrator 16.0.0, SVG Export Plug-In . SVG Version: 6.00 Build 0)  -->
<!DOCTYPE svg PUBLIC "-//W3C//DTD SVG 1.1//EN" "http://www.w3.org/Graphics/SVG/1.1/DTD/svg11.dtd">
<svg version="1.1" id="Layer_1" xmlns="http://www.w3.org/2000/svg" xmlns:xlink="http://www.w3.org/1999/xlink" x="0px" y="0px"
	 width="83px" height="79px" viewBox="44.833 65.389 83 79" enable-background="new 44.833 65.389 83 79" xml:space="preserve">
<path fill="#020202" d="M103.443,137.767c0,0-1.793-5.354-1.655-8.229c0.138-2.873,2.386-7.066,2.386-7.066
	c-4.563-2.342-10.316-4.652-12.447-4.991c-1.771-0.291-1.807-5.223-1.807-5.223s5.188-5.234,6.336-12.267
	c3.055,0,4.948-7.464,1.916-10.102c0.119-2.757,3.916-21.699-15.341-21.699c-19.274,0-15.479,18.942-15.338,21.699
	c-3.048,2.638-1.169,10.102,1.879,10.102c1.145,7.032,6.382,12.267,6.382,12.267s-0.069,4.932-1.861,5.223
	c-5.689,0.916-27.034,10.444-27.034,20.891h35.973L103.443,137.767z"/>
<g>
	<path fill="#020202" d="M113.359,118.848c6.303,0,11.432,5.128,11.432,11.431c0,6.304-5.129,11.433-11.432,11.433
		s-11.433-5.129-11.433-11.433C101.927,123.976,107.055,118.848,113.359,118.848 M113.359,117.848
		c-6.866,0-12.433,5.565-12.433,12.431c0,6.866,5.564,12.433,12.433,12.433c6.863,0,12.432-5.566,12.432-12.433
		C125.791,123.413,120.223,117.848,113.359,117.848L113.359,117.848z"/>
</g>
<g>
	<path fill="#020202" d="M115.721,126.722h-4.693c-2.297,2.281-5.16,5.865-3.688,8.479c1.16,2.065,3.789,2.601,6.334,2.563
		c2.549-0.034,5.02-0.643,5.863-2.563C120.625,132.742,117.857,129.058,115.721,126.722z M113.893,135.306v0.937h-0.899v-0.871
		c-0.614-0.026-1.208-0.191-1.56-0.395l0.274-1.07c0.381,0.211,0.931,0.402,1.521,0.402c0.526,0,0.883-0.203,0.883-0.566
		c0-0.349-0.293-0.568-0.971-0.801c-0.979-0.326-1.65-0.783-1.65-1.676c0-0.806,0.568-1.438,1.548-1.63v-0.869h0.899v0.806
		c0.614,0.026,1.022,0.157,1.326,0.305L115,130.91c-0.24-0.099-0.656-0.313-1.32-0.313c-0.594,0-0.785,0.258-0.785,0.516
		c0,0.303,0.318,0.493,1.096,0.785c1.09,0.387,1.529,0.891,1.529,1.715C115.52,134.428,114.943,135.125,113.893,135.306z"/>
	<path fill="#020202" d="M117.105,123.183c-0.64-0.391-1.433,1.019-2,0.996c-0.563-0.021-1.01-1.41-1.655-1.389
		c-0.647,0.021-0.903,1.287-1.421,1.403c-0.521,0.119-1.812-1.489-2.331-0.926c-0.416,0.458,0.868,2.287,1.372,2.967h0.457h3.742
		h0.429C116.227,125.518,117.637,123.504,117.105,123.183z"/>
</g>
</svg>
