<?xml version="1.0" encoding="utf-8"?>
<!-- Generator: Adobe Illustrator 16.0.0, SVG Export Plug-In . SVG Version: 6.00 Build 0)  -->
<!DOCTYPE svg PUBLIC "-//W3C//DTD SVG 1.1//EN" "http://www.w3.org/Graphics/SVG/1.1/DTD/svg11.dtd">
<svg version="1.1" id="Layer_1" xmlns="http://www.w3.org/2000/svg" xmlns:xlink="http://www.w3.org/1999/xlink" x="0px" y="0px"
	 width="374px" height="374px" viewBox="0 0 374 374" enable-background="new 0 0 374 374" xml:space="preserve">
<g display="none">
	<rect display="inline" fill="none" stroke="#AADFF1" stroke-miterlimit="10" width="374" height="374"/>
	<line display="inline" fill="none" stroke="#AADFF1" stroke-miterlimit="10" x1="0" y1="340.033" x2="374" y2="340.033"/>
	<line display="inline" fill="none" stroke="#AADFF1" stroke-miterlimit="10" x1="0" y1="305.975" x2="374" y2="305.975"/>
	<line display="inline" fill="none" stroke="#AADFF1" stroke-miterlimit="10" x1="0" y1="272.008" x2="374" y2="272.008"/>
	<line display="inline" fill="none" stroke="#AADFF1" stroke-miterlimit="10" x1="0" y1="238.041" x2="374" y2="238.041"/>
	<line display="inline" fill="none" stroke="#AADFF1" stroke-miterlimit="10" x1="0" y1="203.982" x2="374" y2="203.982"/>
	<line display="inline" fill="none" stroke="#AADFF1" stroke-miterlimit="10" x1="0" y1="170.017" x2="374" y2="170.017"/>
	<line display="inline" fill="none" stroke="#AADFF1" stroke-miterlimit="10" x1="0" y1="135.959" x2="374" y2="135.959"/>
	<line display="inline" fill="none" stroke="#AADFF1" stroke-miterlimit="10" x1="0" y1="101.992" x2="374" y2="101.992"/>
	<line display="inline" fill="none" stroke="#AADFF1" stroke-miterlimit="10" x1="0" y1="68.025" x2="374" y2="68.025"/>
	<line display="inline" fill="none" stroke="#AADFF1" stroke-miterlimit="10" x1="0" y1="33.967" x2="374" y2="33.967"/>
	<line display="inline" fill="none" stroke="#AADFF1" stroke-miterlimit="10" x1="340.032" y1="0" x2="340.032" y2="374"/>
	<line display="inline" fill="none" stroke="#AADFF1" stroke-miterlimit="10" x1="305.975" y1="0" x2="305.975" y2="374"/>
	<line display="inline" fill="none" stroke="#AADFF1" stroke-miterlimit="10" x1="272.008" y1="0" x2="272.008" y2="374"/>
	<line display="inline" fill="none" stroke="#AADFF1" stroke-miterlimit="10" x1="238.041" y1="0" x2="238.041" y2="374"/>
	<line display="inline" fill="none" stroke="#AADFF1" stroke-miterlimit="10" x1="203.982" y1="0" x2="203.982" y2="374"/>
	<line display="inline" fill="none" stroke="#AADFF1" stroke-miterlimit="10" x1="170.017" y1="0" x2="170.017" y2="374"/>
	<line display="inline" fill="none" stroke="#AADFF1" stroke-miterlimit="10" x1="135.958" y1="0" x2="135.958" y2="374"/>
	<line display="inline" fill="none" stroke="#AADFF1" stroke-miterlimit="10" x1="101.991" y1="0" x2="101.991" y2="374"/>
	<line display="inline" fill="none" stroke="#AADFF1" stroke-miterlimit="10" x1="68.024" y1="0" x2="68.024" y2="374"/>
	<line display="inline" fill="none" stroke="#AADFF1" stroke-miterlimit="10" x1="33.967" y1="0" x2="33.967" y2="374"/>
</g>
<image overflow="visible" enable-background="new    " width="20" height="20" xlink:href="../../../../../../../Users/anjalisharma/Desktop/Plugin svg icon/u231.png"  transform="matrix(0.9999 0 0 0.9999 -7895.999 -7805.998)">
</image>
<g>
	<path d="M17,19.057h-6.774c0,0-0.507-0.459,0-1.085c0.405,0,6.774,0,6.774,0s0-4.008,0-6.737c0.536-0.528,1.035,0,1.035,0v6.737
		c0,0,6.654,0,6.774,0c0.432,0.541,0,1.085,0,1.085h-6.774c0,0,0,6.5,0,6.738c-0.454,0.453-1.035,0-1.035,0V19.057z"/>
</g>
<g>
	<g>
		<path stroke="#000000" stroke-width="0.1" stroke-miterlimit="10" d="M13.709,38.355c2.227-2.015,5.563-2.045,7.823-0.205
			l-1.791,0.067c-0.232,0.01-0.41,0.201-0.401,0.432c0.01,0.225,0.195,0.4,0.417,0.4c0.006,0,0.009,0,0.016,0l2.75-0.101
			c0.224-0.01,0.4-0.192,0.4-0.418v-0.028c0-0.007,0-0.012,0-0.018v-0.002l0,0l-0.102-2.717c-0.009-0.231-0.203-0.411-0.431-0.401
			c-0.231,0.01-0.411,0.201-0.401,0.431l0.066,1.705c-1.119-0.916-2.497-1.445-3.971-1.52c-1.824-0.091-3.578,0.534-4.932,1.761
			c-1.862,1.686-2.65,4.249-2.058,6.692c0.045,0.19,0.215,0.317,0.403,0.317c0.033,0,0.065-0.003,0.099-0.013
			c0.222-0.056,0.36-0.281,0.305-0.503C11.383,42.087,12.073,39.835,13.709,38.355z"/>
		<path stroke="#000000" stroke-width="0.1" stroke-miterlimit="10" d="M24.507,41.388c-0.056-0.221-0.282-0.36-0.503-0.305
			c-0.222,0.056-0.361,0.281-0.305,0.503c0.521,2.145-0.172,4.397-1.81,5.876c-1.149,1.04-2.592,1.551-4.028,1.551
			c-1.37,0-2.739-0.467-3.842-1.385l1.812-0.163c0.229-0.021,0.398-0.222,0.376-0.453c-0.022-0.23-0.222-0.397-0.453-0.376
			l-2.74,0.247c-0.228,0.022-0.397,0.222-0.376,0.453l0.247,2.74c0.02,0.216,0.202,0.38,0.414,0.38c0.012,0,0.024,0,0.037-0.003
			c0.228-0.022,0.396-0.222,0.376-0.453l-0.148-1.669c1.119,0.907,2.491,1.433,3.955,1.508c0.117,0.005,0.235,0.008,0.348,0.008
			c1.698,0,3.313-0.622,4.583-1.769C24.309,46.393,25.098,43.833,24.507,41.388z"/>
	</g>
</g>
<g>
	<g>
		<path d="M22.241,72.782h-8.726c-0.205,0-0.341-0.13-0.341-0.325V61.638c0-0.195,0.136-0.326,0.341-0.326h8.691
			c0.205,0,0.341,0.13,0.341,0.326v10.82C22.583,72.652,22.412,72.782,22.241,72.782z M13.857,72.132h8.01V61.963h-8.01V72.132z"/>
	</g>
	<g>
		<path d="M23.538,61.963H12.221c-0.205,0-0.341-0.13-0.341-0.325V59.72c0-0.195,0.136-0.325,0.341-0.325h11.317
			c0.205,0,0.341,0.13,0.341,0.325v1.918C23.878,61.8,23.742,61.963,23.538,61.963z M12.561,61.313h10.636v-1.268H12.561V61.313z"/>
	</g>
	<g>
		<path d="M20.128,60.045h-4.5c-0.205,0-0.341-0.129-0.341-0.325v-1.885c0-0.195,0.136-0.325,0.341-0.325h4.5
			c0.205,0,0.341,0.13,0.341,0.325v1.885C20.469,59.883,20.299,60.045,20.128,60.045z M15.97,59.395h3.818v-1.234H15.97V59.395z"/>
	</g>
</g>
<g>
	<path fill="none" stroke="#000000" stroke-width="0.75" stroke-miterlimit="10" d="M43.979,12.512c-3.308,0-6.161,1.95-7.47,4.765
		c-0.041,0.084-0.041,0.185,0,0.271c1.309,2.816,4.162,4.765,7.47,4.765s6.161-1.949,7.47-4.765c0.041-0.084,0.041-0.184,0-0.271
		C50.14,14.462,47.287,12.512,43.979,12.512z"/>
	<circle fill="none" stroke="#000000" stroke-width="0.75" stroke-miterlimit="10" cx="43.979" cy="17.413" r="2.165"/>
</g>
<path d="M51.18,60.631c-0.217-0.218-0.57-0.218-0.787,0l-7.644,7.912l-3.457-3.367c-0.218-0.218-0.57-0.218-0.788,0
	c-0.217,0.218-0.217,0.571,0,0.789l3.85,3.762c0.108,0.108,0.25,0.162,0.395,0.162c0.142,0,0.285-0.054,0.393-0.162l8.038-8.306
	C51.397,61.202,51.397,60.849,51.18,60.631z"/>
<g>
	<path d="M39.021,47.918c0.068,0.069,0.155,0.105,0.25,0.105c0.094,0,0.18-0.036,0.249-0.105l4.397-4.396l4.397,4.396
		c0.069,0.069,0.155,0.105,0.25,0.105c0.086,0,0.181-0.036,0.25-0.105c0.138-0.137,0.138-0.361,0-0.498l-4.396-4.398l4.396-4.396
		c0.138-0.137,0.138-0.361,0-0.499c-0.138-0.139-0.36-0.139-0.5,0l-4.397,4.396l-4.397-4.396c-0.138-0.139-0.36-0.139-0.499,0
		c-0.139,0.138-0.139,0.362,0,0.499l4.397,4.396l-4.397,4.398C38.884,47.557,38.884,47.781,39.021,47.918z"/>
</g>
</svg>
