<?xml version="1.0" encoding="utf-8"?>
<!-- Generator: Adobe Illustrator 16.0.0, SVG Export Plug-In . SVG Version: 6.00 Build 0)  -->
<!DOCTYPE svg PUBLIC "-//W3C//DTD SVG 1.1//EN" "http://www.w3.org/Graphics/SVG/1.1/DTD/svg11.dtd">
<svg version="1.1" id="Layer_1" xmlns="http://www.w3.org/2000/svg" xmlns:xlink="http://www.w3.org/1999/xlink" x="0px" y="0px"
	 width="63.75px" height="57.375px" viewBox="0 0 63.75 57.375" enable-background="new 0 0 63.75 57.375" xml:space="preserve">
<path d="M57.125,53.966c-15.117,0-29.688,0-44.781,0c0-15.36,0-30.424,0-45.846c14.947,0,29.52,0,44.781,0
	C57.125,23.16,57.125,38.227,57.125,53.966z M53.684,51.066c0-13.834,0-26.813,0-39.975c-12.863,0-25.963-0.037-38.309-0.037
	c0,13.619,0,26.772,0,39.974C28.183,51.029,41.063,51.066,53.684,51.066z"/>
<path d="M7.125,49.566c0-15.01,0-30.021,0-45.602c14.589,0,29.641,0,44.693,0c0.052,0.487,0.103,1.973,0.154,2.46
	c-13.547,0-27.094,0-41.863,0c0,15.454,0,28.8,0,43.146C9.115,49.568,8.119,49.566,7.125,49.566z"/>
</svg>
