<?xml version="1.0" encoding="utf-8"?>
<!-- Generator: Adobe Illustrator 16.0.0, SVG Export Plug-In . SVG Version: 6.00 Build 0)  -->
<!DOCTYPE svg PUBLIC "-//W3C//DTD SVG 1.1//EN" "http://www.w3.org/Graphics/SVG/1.1/DTD/svg11.dtd">
<svg version="1.1" id="Layer_1" xmlns="http://www.w3.org/2000/svg" xmlns:xlink="http://www.w3.org/1999/xlink" x="0px" y="0px"
	 width="50px" height="50px" viewBox="0 0 50 50" enable-background="new 0 0 50 50" xml:space="preserve">
<g>
	<path fill="none" stroke="#010101" stroke-miterlimit="10" d="M32.31,29.188c0,0,0.512-0.751-0.165-1.77
		c-1.047-1.379-1.57-2.915-1.16-4.614c0.427-1.771,1.938-2.787,3.82-2.646c1.965,0.146,3.286,1.354,3.434,3.185
		c0.123,1.552-0.365,2.949-1.363,4.186c-0.898,1.117-1.148,1.684,0.624,2.261c4.203,1.288,4.117,3.194,4.117,3.194v0.854h-4.479"/>
</g>
<g>
	<path fill="none" stroke="#010101" stroke-miterlimit="10" d="M30.355,31.196c3.844,1.905,3.746,4.021,3.746,4.021v1.369H12.105
		v-1.307c0,0-0.503-3.034,5.663-5.121c3.245-1.091,2.701-1.791,1.117-3.886c-1.679-2.215-2.521-4.683-1.861-7.415
		c0.686-2.844,3.11-4.477,6.137-4.251c3.156,0.236,5.281,2.178,5.518,5.118c0.197,2.495-0.589,4.737-2.191,6.725
		c-1.446,1.798-1.847,2.706,1.003,3.631C28.631,30.431,29.574,30.809,30.355,31.196"/>
</g>
</svg>
