<?xml version="1.0" encoding="utf-8"?>
<!-- Generator: Adobe Illustrator 16.0.0, SVG Export Plug-In . SVG Version: 6.00 Build 0)  -->
<!DOCTYPE svg PUBLIC "-//W3C//DTD SVG 1.1//EN" "http://www.w3.org/Graphics/SVG/1.1/DTD/svg11.dtd">
<svg version="1.1" id="Layer_1" xmlns="http://www.w3.org/2000/svg" xmlns:xlink="http://www.w3.org/1999/xlink" x="0px" y="0px"
	 width="22px" height="22px" viewBox="0 0 22 22" enable-background="new 0 0 22 22" xml:space="preserve">
<rect x="-567.639" y="-373.734" display="none" fill="#76CEF4" width="1226.684" height="785.96"/>
<g>
	<path d="M12.306,19.303H3.95c-0.641,0.029-1.162-0.49-1.162-1.133v-7.402c0-0.643,0.521-1.162,1.162-1.162h11.594
		c0.535,0,0.984,0.361,1.121,0.854c0.145-0.011,0.291-0.018,0.439-0.018c0.104,0,0.207,0.003,0.309,0.008
		c-0.15-0.916-0.938-1.609-1.898-1.609h-0.246V5.537C15.269,2.478,12.792,0,9.733,0C6.673,0,4.196,2.478,4.196,5.537V8.84H3.95
		c-1.07,0-1.926,0.857-1.926,1.928v7.372c0,1.071,0.855,1.927,1.926,1.927h8.727C12.536,19.821,12.413,19.565,12.306,19.303z
		 M4.931,5.537c0-2.662,2.141-4.803,4.803-4.803c2.66,0,4.801,2.141,4.801,4.803V8.84H4.931V5.537z"/>
	<path d="M10.038,16.886c0.184-0.092,0.275-0.275,0.275-0.489v-1.499c0-0.122,0.031-0.184,0.123-0.245
		c0.305-0.214,0.459-0.52,0.459-0.918c0-0.58-0.398-1.01-0.949-1.131c-0.488-0.092-1.039,0.184-1.254,0.672
		c-0.244,0.49-0.092,1.071,0.367,1.377c0.092,0.062,0.123,0.152,0.123,0.245v1.499C9.183,16.793,9.61,17.1,10.038,16.886z"/>
	<path d="M14.417,14.77l-0.758-0.176c0.188-0.812,0.525-1.448,1-1.893c0.58-0.543,1.305-0.818,2.152-0.818
		c0.873,0,1.625,0.3,2.234,0.891c0.617,0.598,0.93,1.311,0.93,2.117c0,0.464-0.115,0.899-0.34,1.295
		c-0.205,0.357-0.578,0.77-1.176,1.296c-0.631,0.557-0.887,0.833-0.982,0.948c-0.209,0.251-0.359,0.496-0.447,0.727
		c-0.129,0.334-0.195,0.743-0.195,1.221v0.009h-0.777v-0.009c0-0.574,0.082-1.079,0.246-1.5c0.117-0.308,0.311-0.627,0.576-0.945
		c0.197-0.236,0.557-0.584,1.066-1.033c0.516-0.456,0.857-0.826,1.014-1.1c0.158-0.275,0.238-0.581,0.238-0.908
		c0-0.589-0.234-1.113-0.693-1.559s-1.029-0.671-1.695-0.671c-0.643,0-1.188,0.204-1.619,0.608
		C14.829,13.607,14.569,14.111,14.417,14.77z"/>
	<rect x="15.95" y="21.222" width="0.936" height="0.778"/>
</g>
</svg>
