<?xml version="1.0" encoding="utf-8"?>
<!-- Generator: Adobe Illustrator 16.0.0, SVG Export Plug-In . SVG Version: 6.00 Build 0)  -->
<!DOCTYPE svg PUBLIC "-//W3C//DTD SVG 1.1//EN" "http://www.w3.org/Graphics/SVG/1.1/DTD/svg11.dtd">
<svg version="1.1" id="Layer_1" xmlns="http://www.w3.org/2000/svg" xmlns:xlink="http://www.w3.org/1999/xlink" x="0px" y="0px"
	 width="22px" height="22px" viewBox="0 0 22 22" enable-background="new 0 0 22 22" xml:space="preserve">
<rect x="-929.638" y="-438.401" display="none" fill="#76CEF4" width="1226.684" height="785.96"/>
<g transform="translate(0,-952.36218)">
	<path d="M0.656,954.082c-0.402,0.042-0.694,0.402-0.652,0.805c0.009,0.081,0.03,0.16,0.064,0.233l3.773,8.247l-3.773,8.248
		c-0.165,0.37,0.001,0.804,0.371,0.969c0.183,0.082,0.391,0.084,0.576,0.009l20.39-8.499c0.016-0.005,0.031-0.01,0.046-0.016
		l0.023-0.008c0.388-0.115,0.61-0.522,0.495-0.91c-0.063-0.215-0.22-0.389-0.427-0.473l-20.527-8.553
		C0.902,954.088,0.779,954.068,0.656,954.082z M1.527,955.553l17.357,7.231H4.834L1.527,955.553z M4.754,963.952h14.033
		l-17.331,7.223L4.754,963.952z"/>
</g>
</svg>
