<?xml version="1.0" encoding="utf-8"?>
<!-- Generator: Adobe Illustrator 16.0.0, SVG Export Plug-In . SVG Version: 6.00 Build 0)  -->
<!DOCTYPE svg PUBLIC "-//W3C//DTD SVG 1.1//EN" "http://www.w3.org/Graphics/SVG/1.1/DTD/svg11.dtd">
<svg version="1.1" id="Layer_1" xmlns="http://www.w3.org/2000/svg" xmlns:xlink="http://www.w3.org/1999/xlink" x="0px" y="0px"
	 width="22px" height="22px" viewBox="0 0 22 22" enable-background="new 0 0 22 22" xml:space="preserve">
<rect x="-910.638" y="-387.234" display="none" fill="#76CEF4" width="1226.684" height="785.959"/>
<path fill="none" stroke="#000000" stroke-width="0.82" stroke-miterlimit="10" d="M2.813,6.359V3.266c0,0,0.047-1.547,1.735-1.547
	h15.281c0,0,1.547,0.07,1.547,1.665v15.162c0,0,0.023,1.736-1.547,1.736H4.359c0,0-1.547,0.069-1.547-1.829v-2.812"/>
<path d="M16.783,10.929c0,0.206-0.167,0.373-0.373,0.373H0.538c-0.206,0-0.373-0.167-0.373-0.373l0,0
	c0-0.206,0.167-0.374,0.373-0.374H16.41C16.616,10.555,16.783,10.723,16.783,10.929L16.783,10.929z"/>
<path d="M16.675,11.196c-0.146,0.146-0.382,0.147-0.528,0.003l-5.293-5.255c-0.146-0.146-0.147-0.382-0.003-0.528l0,0
	c0.146-0.146,0.383-0.147,0.529-0.002l5.293,5.254C16.819,10.813,16.819,11.05,16.675,11.196L16.675,11.196z"/>
<path d="M16.636,10.729c0.146,0.146,0.149,0.381,0.006,0.528l-5.223,5.325c-0.145,0.147-0.381,0.149-0.527,0.006l0,0
	c-0.147-0.146-0.149-0.382-0.006-0.529l5.223-5.324C16.252,10.587,16.488,10.586,16.636,10.729L16.636,10.729z"/>
</svg>
