<?xml version="1.0" encoding="utf-8"?>
<!-- Generator: Adobe Illustrator 16.0.0, SVG Export Plug-In . SVG Version: 6.00 Build 0)  -->
<!DOCTYPE svg PUBLIC "-//W3C//DTD SVG 1.1//EN" "http://www.w3.org/Graphics/SVG/1.1/DTD/svg11.dtd">
<svg version="1.1" id="Layer_1" xmlns="http://www.w3.org/2000/svg" xmlns:xlink="http://www.w3.org/1999/xlink" x="0px" y="0px"
	 width="22px" height="22px" viewBox="0 0 22 22" enable-background="new 0 0 22 22" xml:space="preserve">
<rect x="-539.639" y="-373.734" display="none" fill="#76CEF4" width="1226.684" height="785.959"/>
<g display="none">
	<path display="inline" d="M12.307,19.303H3.95c-0.641,0.029-1.162-0.49-1.162-1.133v-7.402c0-0.643,0.521-1.162,1.162-1.162h11.594
		c0.535,0,0.983,0.361,1.121,0.854c0.146-0.011,0.291-0.018,0.438-0.018c0.104,0,0.207,0.003,0.31,0.008
		c-0.149-0.916-0.938-1.609-1.897-1.609H15.27V5.537C15.27,2.478,12.792,0,9.733,0c-3.06,0-5.537,2.478-5.537,5.537V8.84H3.95
		c-1.07,0-1.926,0.857-1.926,1.928v7.373c0,1.07,0.855,1.926,1.926,1.926h8.727C12.536,19.82,12.413,19.564,12.307,19.303z
		 M4.931,5.537c0-2.662,2.141-4.803,4.803-4.803c2.661,0,4.801,2.141,4.801,4.803V8.84H4.931V5.537z"/>
	<path display="inline" d="M10.038,16.886c0.184-0.092,0.275-0.274,0.275-0.489v-1.498c0-0.123,0.031-0.185,0.123-0.246
		c0.305-0.213,0.459-0.52,0.459-0.918c0-0.579-0.398-1.01-0.949-1.131c-0.488-0.092-1.039,0.185-1.254,0.672
		c-0.244,0.49-0.092,1.072,0.367,1.377c0.092,0.063,0.123,0.152,0.123,0.246v1.498C9.183,16.793,9.61,17.1,10.038,16.886z"/>
	<path display="inline" d="M14.417,14.77l-0.758-0.176c0.188-0.812,0.524-1.447,1-1.893c0.579-0.543,1.305-0.818,2.151-0.818
		c0.873,0,1.625,0.301,2.234,0.891c0.617,0.599,0.93,1.312,0.93,2.117c0,0.465-0.115,0.899-0.34,1.295
		c-0.205,0.357-0.578,0.771-1.176,1.297c-0.631,0.557-0.887,0.832-0.982,0.947c-0.209,0.252-0.358,0.496-0.447,0.728
		c-0.129,0.334-0.194,0.743-0.194,1.221v0.009h-0.776v-0.009c0-0.573,0.082-1.079,0.246-1.5c0.116-0.308,0.311-0.627,0.575-0.944
		c0.197-0.236,0.558-0.584,1.065-1.033c0.517-0.457,0.857-0.826,1.015-1.101c0.158-0.274,0.238-0.581,0.238-0.907
		c0-0.59-0.234-1.113-0.693-1.56s-1.028-0.671-1.694-0.671c-0.644,0-1.188,0.204-1.619,0.607
		C14.829,13.607,14.568,14.111,14.417,14.77z"/>
	<rect x="15.95" y="21.223" display="inline" width="0.937" height="0.777"/>
</g>
<path display="none" fill="none" stroke="#000000" stroke-width="0.62" stroke-miterlimit="10" d="M12.35,19.377H3.79
	c0,0-1.146-0.006-1.146-1.297v-7.473c0,0,0.073-1.119,1.284-1.119H15.65c0,0,0.913,0.001,1.144,0.871"/>
<path display="none" fill="none" stroke="#000000" stroke-width="0.62" stroke-miterlimit="10" d="M27.139,6.761V3.458
	c0,0-0.149-2.035,1.624-3.606c0,0,1.894-1.854,4.669-0.962c0,0,2.946,0.826,3.299,4.218l0.013,3.654"/>
<image display="none" overflow="visible" width="800" height="690" xlink:href="../all_icons_vw-new.png"  transform="matrix(1 0 0 1 -753.9238 -363.6855)">
</image>
<line fill="none" stroke="#000000" stroke-miterlimit="10" x1="1.625" y1="1.875" x2="20.438" y2="20.688"/>
<line fill="none" stroke="#000000" stroke-miterlimit="10" x1="1.618" y1="20.681" x2="20.444" y2="1.882"/>
</svg>
