<?xml version="1.0" encoding="utf-8"?>
<!-- Generator: Adobe Illustrator 16.0.0, SVG Export Plug-In . SVG Version: 6.00 Build 0)  -->
<!DOCTYPE svg PUBLIC "-//W3C//DTD SVG 1.1//EN" "http://www.w3.org/Graphics/SVG/1.1/DTD/svg11.dtd">
<svg version="1.1" id="Layer_1" xmlns="http://www.w3.org/2000/svg" xmlns:xlink="http://www.w3.org/1999/xlink" x="0px" y="0px"
	 width="152px" height="19px" viewBox="0 0 152 19" enable-background="new 0 0 152 19" xml:space="preserve">
<rect x="-279.123" y="-724.054" display="none" fill="#76CEF4" width="1226.684" height="785.96"/>
<path fill="#999999" d="M41.541,16.366h2.414v-4.414h2.725c3.021,0,5.492-1.607,5.492-4.688V7.226c0-2.766-2.02-4.59-5.217-4.59
	h-5.414V16.366L41.541,16.366z M43.955,9.774V4.831h2.805c1.803,0,2.961,0.844,2.961,2.453v0.039c0,1.432-1.137,2.451-2.961,2.451
	H43.955L43.955,9.774z M53.686,16.378h2.412v-4.785h3.021l3.373,4.785h2.844l-3.707-5.197c1.922-0.549,3.275-1.902,3.275-4.158
	V6.983c0-1.197-0.41-2.217-1.137-2.963c-0.883-0.861-2.236-1.373-3.963-1.373h-6.119V16.378L53.686,16.378z M56.072,9.429V4.819
	h3.51c1.785,0,2.846,0.803,2.846,2.275v0.039c0,1.393-1.1,2.295-2.826,2.295H56.072L56.072,9.429z M73.564,16.601
	c4.219,0,7.199-3.236,7.199-7.1V9.46c0-3.863-2.941-7.061-7.158-7.061c-4.219,0-7.199,3.236-7.199,7.102V9.54
	C66.406,13.403,69.348,16.601,73.564,16.601L73.564,16.601z M73.605,14.384c-2.727,0-4.67-2.217-4.67-4.883V9.46
	c0-2.666,1.902-4.844,4.629-4.844s4.67,2.217,4.67,4.885V9.54C78.234,12.206,76.332,14.384,73.605,14.384L73.605,14.384z
	 M87.594,16.562c2.885,0,4.904-1.529,4.904-4.1v-0.039c0-2.275-1.51-3.314-4.412-4.021c-2.629-0.627-3.258-1.098-3.258-2.158V6.204
	c0-0.902,0.824-1.627,2.236-1.627c1.256,0,2.492,0.49,3.727,1.412l1.295-1.824c-1.393-1.119-2.98-1.727-4.982-1.727
	c-2.727,0-4.688,1.629-4.688,3.982V6.46c0,2.529,1.648,3.393,4.57,4.1c2.551,0.588,3.1,1.117,3.1,2.098v0.041
	c0,1.039-0.941,1.725-2.432,1.725c-1.707,0-3.021-0.646-4.336-1.785l-1.451,1.727C83.516,15.835,85.496,16.562,87.594,16.562
	L87.594,16.562z M94.039,16.392h2.412v-4.412h2.727c3.02,0,5.492-1.609,5.492-4.689V7.251c0-2.766-2.021-4.59-5.219-4.59h-5.412
	V16.392L94.039,16.392z M96.451,9.802V4.858h2.805c1.805,0,2.961,0.844,2.961,2.451v0.039c0,1.434-1.137,2.453-2.961,2.453H96.451
	L96.451,9.802z M112.051,16.581c3.59,0,5.904-2.061,5.904-6.16V2.636h-2.414v7.904c0,2.529-1.313,3.824-3.451,3.824
	c-2.158,0-3.473-1.373-3.473-3.922V2.636h-2.412v7.904C106.205,14.521,108.48,16.581,112.051,16.581L112.051,16.581z
	 M124.639,16.562c2.883,0,4.902-1.529,4.902-4.1v-0.039c0-2.275-1.51-3.314-4.412-4.021c-2.629-0.627-3.256-1.098-3.256-2.158V6.204
	c0-0.902,0.822-1.627,2.236-1.627c1.254,0,2.49,0.49,3.727,1.412l1.293-1.824c-1.393-1.119-2.98-1.727-4.98-1.727
	c-2.727,0-4.689,1.629-4.689,3.982V6.46c0,2.529,1.648,3.393,4.57,4.1c2.551,0.588,3.1,1.117,3.1,2.098v0.041
	c0,1.039-0.941,1.725-2.432,1.725c-1.707,0-3.021-0.646-4.336-1.785l-1.451,1.727C120.559,15.835,122.539,16.562,124.639,16.562
	L124.639,16.562z"/>
<g>
	<polygon fill-rule="evenodd" clip-rule="evenodd" fill="#999999" points="141.102,12.945 142.432,16.406 135.539,16.432 
		133.541,9.962 137.842,10.526 138.639,12.699 141.102,12.945 	"/>
	<path fill-rule="evenodd" clip-rule="evenodd" fill="#999999" d="M144.916,5.425l3.625,7.646l-9.443-0.964l-3.51-9.538
		L144.916,5.425L144.916,5.425z M139.715,7.215c1.107,0.248,2.16,0.483,3.156,0.707c0.398,0.919,0.809,1.86,1.227,2.824
		c-1-0.155-2.057-0.316-3.172-0.488C140.514,9.219,140.109,8.204,139.715,7.215L139.715,7.215z"/>
</g>
<rect x="3.459" y="1.667" fill-rule="evenodd" clip-rule="evenodd" fill="none" width="33.082" height="14.18"/>
<text transform="matrix(1 0 0 1 3.5254 7.7471)"><tspan x="0" y="0" fill="#999999" font-family="'OpenSans'" font-size="8">Powered</tspan><tspan x="24.082" y="8" fill="#999999" font-family="'OpenSans'" font-size="8">by</tspan></text>
</svg>
