<?xml version="1.0" encoding="utf-8"?>
<!-- Generator: Adobe Illustrator 16.0.0, SVG Export Plug-In . SVG Version: 6.00 Build 0)  -->
<!DOCTYPE svg PUBLIC "-//W3C//DTD SVG 1.1//EN" "http://www.w3.org/Graphics/SVG/1.1/DTD/svg11.dtd">
<svg version="1.1" id="Layer_1" xmlns="http://www.w3.org/2000/svg" xmlns:xlink="http://www.w3.org/1999/xlink" x="0px" y="0px"
	 width="50px" height="50px" viewBox="0 0 50 50" enable-background="new 0 0 50 50" xml:space="preserve">
<g>
	<path fill="none" stroke="#010101" stroke-miterlimit="10" d="M33.355,31.196c3.844,1.905,3.746,4.021,3.746,4.021v1.369H15.105
		v-1.307c0.021,0.131-0.627-2.992,5.663-5.121c3.245-1.091,2.701-1.791,1.117-3.886c-1.679-2.215-2.521-4.683-1.861-7.415
		c0.686-2.844,3.11-4.477,6.137-4.251c3.156,0.236,5.281,2.178,5.519,5.118c0.197,2.495-0.589,4.737-2.191,6.725
		c-1.446,1.798-1.847,2.706,1.003,3.631C31.631,30.431,32.574,30.809,33.355,31.196"/>
</g>
</svg>
